<svg width="23" height="23" viewBox="0 0 23 23" fill="none" xmlns="http://www.w3.org/2000/svg">
<path d="M11 10.7188V21.957L10.25 22.332L0.5 17.4688V5.28125L10.25 0.40625L20 5.28125V14H18.5V6.96875L11 10.7188ZM10.25 2.09375L7.42578 3.5L14.7031 7.17969L17.5742 5.75L10.25 2.09375ZM9.5 20.2812V10.7188L2 6.96875V16.5312L9.5 20.2812ZM2.92578 5.75L10.25 9.40625L13.0391 8.02344L5.75 4.34375L2.92578 5.75ZM15.5 20V18.5H23V20H15.5ZM15.5 15.5H23V17H15.5V15.5ZM12.5 23V21.5H14V23H12.5ZM12.5 17V15.5H14V17H12.5ZM12.5 20V18.5H14V20H12.5ZM11 20.2812H11.0117H11ZM15.5 23V21.5H23V23H15.5Z" fill="#26284F"/>
</svg>
