<svg id="ffd1fd18-9fef-45a7-b7f0-71a5bd301610" data-name="Layer 1" xmlns="http://www.w3.org/2000/svg" xmlns:xlink="http://www.w3.org/1999/xlink" viewBox="0 0 368.9 379"><defs><style>.ad6a4855-4868-41a5-9ec1-38e4733b2541,.bf855a01-e628-43cd-a19f-65af0c07a3c2,.f5410446-eef6-4ecb-869b-a1e1b0cbdc28{fill:none;}.a4a9ddf9-631a-4868-ac9b-961a54cb4809{fill:#24a471;}.b6be5459-d9b2-49b9-86bd-81da950cecbe{clip-path:url(#bb294d5d-4939-4665-a7a1-0292491e5830);}.be3aca51-5381-46d8-a2b7-e46328a329e4{fill:#247856;}.a6dfe5a4-8104-4b61-8714-324fcc1b1579{fill:#fff;}.ad9a123a-eabd-431b-90ef-c8a009f2c4b1{fill:#00644c;}.b1529173-a3a1-4359-8ad6-ab764fa45df5{fill:#ff6075;}.be2f52e4-8a0d-4ab4-a2e0-707549231fa5{fill:#fc5250;}.b19afd14-cfb4-4b07-a40d-f55d2cceba2f{fill:#d8373c;}.ae920ce3-9d52-4979-8531-cfd44e15bd90{fill:#b3373c;}.e04f68bd-2a21-4d13-82ff-52b3a3e6cc97{fill:#dbdbdb;}.bb7a81f5-dc2f-4906-bd7c-9eec4b81efb4{fill:#f5f5f8;}.b61ce116-eee2-4484-bd65-0c7fc9183783{fill:#ffaa3f;}.f4455b0e-3158-474c-b5d0-1284094bc615{fill:#f5803f;}.b38348fd-70a9-4252-9c44-58acb2b48632{fill:#874de9;}.a4b6f649-e20f-4068-a9bc-1d0c8bff8c8e{opacity:0.36;}.afd494e7-328a-4827-a8ed-11e79f36b4e7{fill:#f9fbfc;}.ec03fc9a-600d-4b56-a4d1-00071566d7f6{fill:#6d37c6;}.ba11dee2-f915-4d81-9236-c8f218be7c13{fill:#fdbb11;}.bf65ba78-dff2-4eff-a280-397a92915a68{fill:#ffa000;}.bc411322-7533-4480-a812-5aa2f9c04e1b{fill:#f26e21;}.b8370404-f4f2-4383-ba92-3e6def256d94{fill:#ffce4e;}.b7f68459-e480-4da2-9ade-c1cf3123645b{fill:#eb3d3e;}.bfee1e40-cf26-4dff-ab0d-8cc5670662ab{fill:#f1ede4;}.a9083bfa-de72-4e91-a2ff-db0b9947bc1f{fill:#003f2c;}.be1cbea0-36d7-481d-ae86-9bc76b2026e2{fill:#0f2f2f;}.eb8c50de-85a3-4748-9793-d2e4d9b31fe9{fill:#6d232d;}.eead050b-90c5-4aa3-b88e-3b817a0ecd7e{fill:#9d2e3d;}.f295bb39-35fc-4748-a681-8d38345d7539{fill:#531f26;}.f1c410a8-3d34-433e-aea0-c47a0e0bad17{clip-path:url(#b8ccf54e-e973-46a0-a516-6dc49035d046);}.a5bde7a5-3b68-44e2-bbfd-c21014a8a5e5{fill:#f2e5d3;}.ad255920-e28c-43fd-b56f-b942df6d3744{fill:#e04e3e;}.e18bd29e-e236-4457-b7d6-75bf01bac518{clip-path:url(#b7c7db52-8a3b-4c0a-9cca-a808cf8e484c);}.ad6a4855-4868-41a5-9ec1-38e4733b2541,.f5410446-eef6-4ecb-869b-a1e1b0cbdc28{stroke:#f1ede4;stroke-miterlimit:10;}.f5410446-eef6-4ecb-869b-a1e1b0cbdc28{stroke-width:0.5px;}.ad6a4855-4868-41a5-9ec1-38e4733b2541{stroke-width:0.37px;}</style><clipPath id="bb294d5d-4939-4665-a7a1-0292491e5830"><rect class="bf855a01-e628-43cd-a19f-65af0c07a3c2" x="-270.1" y="-37.7" width="639.2" height="415.8" rx="13.7"/></clipPath><clipPath id="b8ccf54e-e973-46a0-a516-6dc49035d046"><path class="bf855a01-e628-43cd-a19f-65af0c07a3c2" d="M144.3,201.3s3.9,0,6.4,5.4c0,0,.7-5.8,11.1-5.8l33.6-5.3-2.1-29.7-22.9-3.2-27.6,16.8-7.5,18.9Z"/></clipPath><clipPath id="b7c7db52-8a3b-4c0a-9cca-a808cf8e484c"><path class="bf855a01-e628-43cd-a19f-65af0c07a3c2" d="M108.3,155.2s-2.3,0-3.8,3.2c0,0-.4-3.4-6.5-3.4l-19.9-3.1,1.3-17.6,13.5-1.9,16.3,10,4.4,11.2Z"/></clipPath></defs><title>bg</title><g id="b4a0c4fc-3d46-47a3-912c-781a79091de3" data-name="Layer 2"><g id="a24a8bee-95fc-41b9-8d49-d1699c878782" data-name="OBJECTS"><path class="a4a9ddf9-631a-4868-ac9b-961a54cb4809" d="M328,89.8c-11.2,15.3-16.6,33.9-24,51.4-13.4,31.8-36,62.1-68.8,73.1-38.6,13-80.9-3.8-121.4.3s-79.7,32-96.4,70.2c-12.9,29.3-12.6,63.8-.5,93.3H355.4a13.7,13.7,0,0,0,13.7-13.7V61C352.8,66.1,338,76,328,89.8Z"/><g class="b6be5459-d9b2-49b9-86bd-81da950cecbe"><path class="be3aca51-5381-46d8-a2b7-e46328a329e4" d="M110.9,422.8h0c-.3-1.2-.7-2.4-1-3.7a1.9,1.9,0,0,1-.2-.7l-.9-3-.3-.9c-.8-2.5-1.7-5-2.6-7.5,0-.1-.1-.2-.2-.3h0a30.5,30.5,0,0,0-1.3-3.2h0l-.3-.9a9.8,9.8,0,0,1-.6-1.4l-.4-.7c32.7-11.4,53.3-27.5,53.3-27.5l-14.2-8.3,10.5-3.4c-2.8-.4-11.5-4.7-19.7-9.1,7.3-.4,14.3-4.4,18.3-7.3-14.7,8.9-29.2,1.6-34.3-1.6,11.5.5,15.4-1.5,15.4-1.5s-21.3-10.1-29-14.5l1.6-1.1c2.8,1.6,5.9,2.1,8,.6-3.7.2-4.6-1.9-4.6-1.9a20.9,20.9,0,0,0,9.2-3.9,21.4,21.4,0,0,1-7.4,1.6c2.7-2.1,5.5-4.3,8.1-6.6h-.6l1.8-.2c-11.1-2.3-17.8-9.7-20.3-10.7s5.6-.5,8.3-3.8a45.6,45.6,0,0,1-11.6-2.7c5.5.3,11.1-1.3,14.6-4.9a33.7,33.7,0,0,1-22.8-1.1c2.6-.5,5.9-1.2,7.3-2.5-4.5-.4-10-3.7-13-5.6C92.1,280,93,278,93,278c-3.4-3.7-10.5-5.7-10.5-5.7a13,13,0,0,0,5.4-1.6C77.7,268,74.7,264,74.7,264s4,0,6.2-1.9c-3.7-.8-12.1-1.6-18.7-6.5a12.5,12.5,0,0,0,9.8-1.3,22.4,22.4,0,0,1-14.9-3.9,27.1,27.1,0,0,1-2.1-3.7,34.1,34.1,0,0,0,5.5.5c-3.5-1-15.6-7.3-21.4-16.4a75.6,75.6,0,0,1-1.8,11.6A22.2,22.2,0,0,1,23.4,253c4.7,1.3,9.3-.9,12.3-4.4-1.8,6.2-4.3,11.9-7.5,15.1a38.4,38.4,0,0,0,6.8-.9,21.5,21.5,0,0,1-13.3,9.5c4.6,1.3,9-.7,12-3.9A69.7,69.7,0,0,1,18.8,293c1.1,2.5,5.5-1.2,5.5-1.2s-1.6,6-3.5,7.7l1.4-.8-.3.3a73.7,73.7,0,0,0,13.3-.9c-2.5,5.6-11.4,21.7-11.4,21.7s3.3-.5,10-5.8c-.9,2.5-10.8,23.6-13.7,26.4l7.8-2.5L23,349.1a78.5,78.5,0,0,0,9.7,0c-.9,2-2.9,4.3-7.3,5.4,4.6-.5,8.2-2.2,10.3-5.5h.8l.8,2.8.7-2.9,2-.2c-1.5,5.2-4.5,12.8-8.6,16.5,4.6.3,14.6-5.6,14.6-5.6S37.8,377.6,26.6,387c5.5,1.5,14-5.4,11.9-2.4s-6.1,15.1-16.4,26.3l.7-.2-.3.3A185.3,185.3,0,0,0,90,404.7c.2.7.5,1.4.7,2.2a4.9,4.9,0,0,1,.4,1.1,4.3,4.3,0,0,1,.1.5l.3,1.1.2.6.3,1.3.2.5.3,1.5v.2c.4,1.9.8,3.9,1.2,6.2,0,.2.1.3.1.5a8.8,8.8,0,0,1,.2,1.7c1.6,10.5,2.5,25,1.6,44.7a9.5,9.5,0,0,0,2.9.7h2.2a19.7,19.7,0,0,0,5.4-.9h0a27.5,27.5,0,0,0,8.6-4.2h0l1.4-1a167.9,167.9,0,0,0-5.3-38.7Z"/><path class="be3aca51-5381-46d8-a2b7-e46328a329e4" d="M273.9,407h0c.2-1.1.5-2.3.7-3.4a1.5,1.5,0,0,1,.1-.7c.1-1,.3-2,.4-2.9a1.9,1.9,0,0,1,.2-.8c.3-2.4.6-4.9.8-7.4v-.3h0c0-1.1.1-2.1.2-3.2h0v-3c31.9,3.6,55.5-1.6,55.5-1.6L323.4,371l10.2,1.4c-2.2-1.5-7.8-8.6-12.8-15.5,6.2,2.6,13.7,2,18.2,1.2-15.9,1.6-25-10.4-28.1-15.2,9.5,5.1,13.5,5,13.5,5s-13.7-17-18.3-23.7l1.7-.2c1.7,2.4,4.1,4,6.4,3.7-3.2-1.4-3.1-3.5-3.1-3.5a19.5,19.5,0,0,0,9.3.4,17.4,17.4,0,0,1-6.8-1.6c3.1-.6,6.2-1.4,9.4-2.3l-.4-.3,1.5.6c-8.3-6.4-10.9-15.3-12.7-17.1s4.9,1.9,8.5.2a44.9,44.9,0,0,1-8.6-6.9c4.5,2.5,9.8,3.3,14.2,1.7a31.4,31.4,0,0,1-18.6-10c2.4.7,5.4,1.3,7.1.8-3.6-2.1-6.9-7.1-8.6-9.9,10.2.4,11.7-.9,11.7-.9-1.4-4.5-6.4-9-6.4-9a10,10,0,0,0,5.1.8c-7.4-6.3-8.3-10.8-8.3-10.8s3.3,1.5,5.9.8c-2.8-2.1-9.4-6.1-13-12.9a12,12,0,0,0,8.7,2.9,21.1,21.1,0,0,1-10.9-9.3,25.5,25.5,0,0,1-.2-3.9,24.3,24.3,0,0,0,4.4,2.6c-2.6-2.2-10.1-12.4-11.4-22.3a90,90,0,0,1-6.2,9A20.1,20.1,0,0,1,269,230a11,11,0,0,0,12,1.3c-4,4.5-8.4,8.3-12.3,9.7a43.1,43.1,0,0,0,6.1,1.9,20,20,0,0,1-14.9,2.6c3.2,2.9,7.7,3,11.5,1.5a62.6,62.6,0,0,1-22.3,14.6c0,2.6,5.2,1.2,5.2,1.2s-3.8,4.4-6,5.1h1.1a69.2,69.2,0,0,0,11.4,4.5c-4.3,3.8-18.2,13.6-18.2,13.6s2.9,1,10.8-.8c-1.8,1.7-18.6,15.3-22.2,16.6l7.6,1.1-8.6,7.3a65.5,65.5,0,0,0,8,3.9c-1.5,1.4-4.1,2.5-8.2,1.6,4.1,1.5,7.7,1.5,10.8-.5l.7.3-.5,2.6,1.9-2.1,1.7.7c-3.4,3.7-8.9,8.8-13.9,10.2,3.8,2.2,14.5,1.3,14.5,1.3s-14.1,11.8-27.3,15.2c4.1,3.5,13.9,1,11,2.8s-11.2,10-24.2,15.3h.2a168.4,168.4,0,0,0,58.9,21.8,9.7,9.7,0,0,1-.3,2.3,2.8,2.8,0,0,1-.1.9,1.5,1.5,0,0,0-.1.6c-.1.3-.1.7-.2,1a1.3,1.3,0,0,1-.1.6c-.1.4-.1.8-.2,1.2s-.1.3-.1.5l-.3,1.4h0q-.6,2.7-1.5,5.7c0,.2-.1.3-.1.4a9.8,9.8,0,0,0-.5,1.6c-2.9,9.4-8,21.8-16.7,38a12.4,12.4,0,0,0,2.2,1.8h.1l.4.3h.1l.5.3h0l.6.3h0a17.1,17.1,0,0,0,4.9,1.4h0a26,26,0,0,0,8.8,0h0l1.6-.3A149.4,149.4,0,0,0,273.9,407Z"/><path class="be3aca51-5381-46d8-a2b7-e46328a329e4" d="M338.2,431.7h0a28.7,28.7,0,0,0,.5-3.1c0-.2.1-.4.1-.6a21.7,21.7,0,0,0,.4-2.5,2.4,2.4,0,0,1,.2-.8c.3-2.1.5-4.3.7-6.4V418h0a26.4,26.4,0,0,1,.2-2.8h0v-2.7c28.1,3.2,49-1.4,49-1.4L381.7,400l9,1.2c-1.9-1.4-6.8-7.6-11.3-13.7,5.5,2.3,12.1,1.8,16.1,1.1-14.1,1.4-22.1-9.2-24.8-13.4,8.3,4.5,11.9,4.3,11.9,4.3s-12.1-14.9-16.2-20.9l1.5-.2c1.5,2.2,3.6,3.6,5.7,3.3-2.8-1.2-2.7-3-2.7-3a18.8,18.8,0,0,0,8.2.3,18.1,18.1,0,0,1-6.1-1.4c2.8-.6,5.6-1.2,8.4-2l-.4-.3,1.3.5c-7.3-5.6-9.6-13.5-11.2-15.1s4.3,1.7,7.5.2a37.7,37.7,0,0,1-7.6-6.1,15.6,15.6,0,0,0,12.6,1.5,27.7,27.7,0,0,1-16.5-8.8c2.1.6,4.8,1.1,6.3.7-3.3-1.9-6.1-6.2-7.6-8.8,9,.4,10.3-.8,10.3-.8-1.2-3.9-5.7-7.9-5.7-7.9a8.9,8.9,0,0,0,4.6.7c-6.6-5.5-7.3-9.6-7.3-9.6s2.9,1.3,5.2.7c-2.5-1.8-8.4-5.3-11.5-11.3a10.5,10.5,0,0,0,7.6,2.5,18.2,18.2,0,0,1-9.5-8.2,19.8,19.8,0,0,1-.3-3.5,22.8,22.8,0,0,0,3.9,2.4c-2.2-2-8.9-10.9-10-19.8a62.3,62.3,0,0,1-5.4,8,18.1,18.1,0,0,1-13.9,2.9,9.8,9.8,0,0,0,10.6,1.1c-3.5,3.9-7.4,7.3-10.9,8.5a30.9,30.9,0,0,0,5.4,1.7,18.1,18.1,0,0,1-13.2,2.4,9.9,9.9,0,0,0,10.2,1.3,57,57,0,0,1-19.8,12.9c0,2.3,4.6,1.1,4.6,1.1s-3.3,3.8-5.4,4.4h1a62.9,62.9,0,0,0,10.1,4.1c-3.8,3.3-16.1,12-16.1,12s2.6.8,9.5-.8c-1.6,1.5-16.4,13.6-19.6,14.7l6.7.9-7.3,6.5a77.5,77.5,0,0,0,7.1,3.4c-1.4,1.2-3.7,2.2-7.3,1.4,3.6,1.3,6.8,1.3,9.5-.4l.7.2-.4,2.3,1.6-1.8,1.5.6c-3,3.2-7.8,7.8-12.2,9,3.3,1.9,12.7,1.1,12.7,1.1s-12.4,10.4-24.1,13.4c3.6,3.1,12.3,1,9.7,2.5s-9.9,8.9-21.4,13.5h.2a151.3,151.3,0,0,0,52,19.3,13.7,13.7,0,0,1-.2,1.9c0,.3-.1.6-.1.9s0,.3-.1.5-.1.6-.2.9-.1.3-.1.5a4.4,4.4,0,0,1-.2,1v.5l-.3,1.2h0c-.3,1.6-.8,3.3-1.3,5.1a.4.4,0,0,1-.1.3c-.1.5-.3,1-.4,1.4-2.6,8.3-7,19.3-14.7,33.6a7,7,0,0,0,1.9,1.5h.1l.3.2h.1l.4.3h.1l.6.2h0a15.7,15.7,0,0,0,4.2,1.3h0a26.2,26.2,0,0,0,7.9,0h0l1.4-.3a141,141,0,0,0,9.8-30.5Z"/><path class="a6dfe5a4-8104-4b61-8714-324fcc1b1579" d="M89.3,262.8c18.3,12.4,42.1,9.7,61.6,1.8,22.3-9.1,41.5-24.3,64.1-32.7a87.9,87.9,0,0,1,35.5-5.9,128.3,128.3,0,0,1,35.9,6.9c22.3,7.3,43,21,66.9,22.6,10.7.6,21.7-1.3,30.7-7.4a47.9,47.9,0,0,0,17.4-22.5,44.4,44.4,0,0,0,2.1-7.1c.2-.6-.8-.9-1-.2a50.1,50.1,0,0,1-14.8,25.5c-8.2,7.4-19,10.6-29.9,10.7-23.9.2-44.7-13.2-66.5-21s-45.7-11.7-68.3-5.4-41.6,20.6-62.4,30.9-43.3,16.2-64.2,6.6a42.8,42.8,0,0,1-6.6-3.7C89.3,261.5,88.7,262.5,89.3,262.8Z"/><path class="ad9a123a-eabd-431b-90ef-c8a009f2c4b1" d="M96.7,258.9A14.5,14.5,0,0,1,84.4,261c2.8,4.3,8.5,4.5,13,3.1S96.7,258.9,96.7,258.9Z"/><path class="b1529173-a3a1-4359-8ad6-ab764fa45df5" d="M111.8,270a3.6,3.6,0,0,1-3.6,3.6,3.6,3.6,0,1,1,0-7.2h0a3.6,3.6,0,0,1,3.6,3.6Z"/><path class="a6dfe5a4-8104-4b61-8714-324fcc1b1579" d="M110.3,268.9a1.2,1.2,0,0,1-1.2,1.2,1.2,1.2,0,0,1-1.1-1.2,1.1,1.1,0,0,1,1.1-1.2h0A1.2,1.2,0,0,1,110.3,268.9Z"/><path class="b1529173-a3a1-4359-8ad6-ab764fa45df5" d="M132.7,269.5a3.6,3.6,0,1,1-3.6-3.6h0a3.6,3.6,0,0,1,3.6,3.6Z"/><path class="a6dfe5a4-8104-4b61-8714-324fcc1b1579" d="M131.2,268.3a1.2,1.2,0,0,1-1.2,1.2,1.1,1.1,0,0,1-1.1-1.2,1.1,1.1,0,0,1,1.1-1.1h.1A1.1,1.1,0,0,1,131.2,268.3Z"/><path class="b1529173-a3a1-4359-8ad6-ab764fa45df5" d="M152.7,264.5a3.6,3.6,0,0,1-3.6,3.6,3.7,3.7,0,0,1-3.6-3.6,3.6,3.6,0,0,1,3.6-3.6h0a3.6,3.6,0,0,1,3.6,3.6Z"/><path class="a6dfe5a4-8104-4b61-8714-324fcc1b1579" d="M151.2,263.3a1.1,1.1,0,0,1-1.1,1.2,1.2,1.2,0,0,1-1.2-1.2,1.1,1.1,0,0,1,1.2-1.1h0A1.1,1.1,0,0,1,151.2,263.3Z"/><path class="b1529173-a3a1-4359-8ad6-ab764fa45df5" d="M172.2,255.4a3.6,3.6,0,1,1-3.6-3.6h0A3.6,3.6,0,0,1,172.2,255.4Z"/><path class="a6dfe5a4-8104-4b61-8714-324fcc1b1579" d="M170.7,254.2a1.1,1.1,0,0,1-1.1,1.2,1.2,1.2,0,0,1-1.2-1.2,1.1,1.1,0,0,1,1.1-1.1h.1A1.1,1.1,0,0,1,170.7,254.2Z"/><path class="b1529173-a3a1-4359-8ad6-ab764fa45df5" d="M189.5,245.8a3.6,3.6,0,1,1-3.6-3.6h0a3.6,3.6,0,0,1,3.6,3.6Z"/><path class="a6dfe5a4-8104-4b61-8714-324fcc1b1579" d="M188,244.7a1.1,1.1,0,0,1-1.2,1.1,1.1,1.1,0,0,1-1.1-1.1,1.1,1.1,0,0,1,1.1-1.2h0A1.2,1.2,0,0,1,188,244.7Z"/><circle class="b1529173-a3a1-4359-8ad6-ab764fa45df5" cx="204" cy="235.6" r="3.6"/><path class="a6dfe5a4-8104-4b61-8714-324fcc1b1579" d="M206.1,234.5a1.2,1.2,0,0,1-1.2,1.2,1.4,1.4,0,0,1-1.2-1.2,1.3,1.3,0,0,1,1.2-1.2h0A1.2,1.2,0,0,1,206.1,234.5Z"/><path class="b1529173-a3a1-4359-8ad6-ab764fa45df5" d="M225.6,230.1a3.6,3.6,0,1,1-7.1,0,3.4,3.4,0,0,1,3.5-3.6h0A3.6,3.6,0,0,1,225.6,230.1Z"/><path class="a6dfe5a4-8104-4b61-8714-324fcc1b1579" d="M224.1,228.9a1.1,1.1,0,0,1-1.1,1.2,1.2,1.2,0,0,1-1.2-1.2,1.1,1.1,0,0,1,1.2-1.1h0a1.1,1.1,0,0,1,1.1,1.1Z"/><path class="b1529173-a3a1-4359-8ad6-ab764fa45df5" d="M245.8,226.3a3.6,3.6,0,1,1-3.6-3.5h.1A3.5,3.5,0,0,1,245.8,226.3Z"/><path class="a6dfe5a4-8104-4b61-8714-324fcc1b1579" d="M244.3,225.2a1.1,1.1,0,0,1-1.1,1.1,1.1,1.1,0,0,1-1.2-1.1,1.2,1.2,0,0,1,1.2-1.2,1.1,1.1,0,0,1,1.1,1.2Z"/><path class="b1529173-a3a1-4359-8ad6-ab764fa45df5" d="M268.5,227.7a3.6,3.6,0,0,1-3.5,3.6,3.5,3.5,0,0,1-3.6-3.5,3.6,3.6,0,0,1,3.5-3.6h.1A3.5,3.5,0,0,1,268.5,227.7Z"/><path class="a6dfe5a4-8104-4b61-8714-324fcc1b1579" d="M267.1,226.6a1.2,1.2,0,0,1-2.4,0,1.1,1.1,0,0,1,1.2-1.1h0A1.2,1.2,0,0,1,267.1,226.6Z"/><circle class="b1529173-a3a1-4359-8ad6-ab764fa45df5" cx="287.7" cy="232.9" r="3.6"/><path class="a6dfe5a4-8104-4b61-8714-324fcc1b1579" d="M289.8,231.8a1.2,1.2,0,1,1-1.2-1.2h0A1.3,1.3,0,0,1,289.8,231.8Z"/><path class="b1529173-a3a1-4359-8ad6-ab764fa45df5" d="M312.9,241.5a3.6,3.6,0,1,1-3.6-3.6h0a3.6,3.6,0,0,1,3.6,3.6Z"/><path class="a6dfe5a4-8104-4b61-8714-324fcc1b1579" d="M311.4,240.4a1.2,1.2,0,0,1-2.4,0,1.2,1.2,0,1,1,2.4,0Z"/><path class="b1529173-a3a1-4359-8ad6-ab764fa45df5" d="M334.5,249.9a3.6,3.6,0,0,1-3.6,3.6,3.7,3.7,0,0,1-3.6-3.6,3.6,3.6,0,0,1,3.6-3.5h0A3.6,3.6,0,0,1,334.5,249.9Z"/><path class="a6dfe5a4-8104-4b61-8714-324fcc1b1579" d="M333,248.8a1.2,1.2,0,0,1-1.1,1.2,1.2,1.2,0,0,1-1.2-1.2,1.2,1.2,0,0,1,1.2-1.2h0a1.1,1.1,0,0,1,1.1,1.2Z"/><path class="b1529173-a3a1-4359-8ad6-ab764fa45df5" d="M361.3,255.5a3.6,3.6,0,1,1-3.5-3.6,3.6,3.6,0,0,1,3.5,3.6Z"/><path class="a6dfe5a4-8104-4b61-8714-324fcc1b1579" d="M359.9,254.3a1.2,1.2,0,0,1-2.4,0,1.1,1.1,0,0,1,1.2-1.1h0a1.2,1.2,0,0,1,1.2,1.1Z"/><polygon class="be2f52e4-8a0d-4ab4-a2e0-707549231fa5" points="287.7 297 248.1 309.8 281.7 334.4 321.4 321.5 287.7 297"/><polygon class="be2f52e4-8a0d-4ab4-a2e0-707549231fa5" points="281.7 334.4 321.4 321.5 316.5 351.9 276.9 364.7 281.7 334.4"/><polygon class="b19afd14-cfb4-4b07-a40d-f55d2cceba2f" points="248.1 309.8 281.7 334.4 276.9 364.7 243.3 340.2 248.1 309.8"/><polygon class="ae920ce3-9d52-4979-8531-cfd44e15bd90" points="287.7 297 248.1 309.8 281.7 334.4 321.4 321.5 287.7 297"/><polygon class="ae920ce3-9d52-4979-8531-cfd44e15bd90" points="281.7 334.4 321.4 321.5 321.1 323.3 281.5 336.1 281.7 334.4"/><polygon class="ae920ce3-9d52-4979-8531-cfd44e15bd90" points="248.1 309.8 281.7 334.4 281.5 336.1 247.8 311.6 248.1 309.8"/><polygon class="be2f52e4-8a0d-4ab4-a2e0-707549231fa5" points="289.6 285.5 247.2 299.2 283.2 325.5 325.5 311.7 289.6 285.5"/><polygon class="b19afd14-cfb4-4b07-a40d-f55d2cceba2f" points="283.2 325.5 325.5 311.7 324 321.4 281.6 335.1 283.2 325.5"/><polygon class="b19afd14-cfb4-4b07-a40d-f55d2cceba2f" points="247.2 299.2 283.2 325.5 281.6 335.1 245.7 308.8 247.2 299.2"/><polygon class="e04f68bd-2a21-4d13-82ff-52b3a3e6cc97" points="308.1 317.3 301.8 356.6 294.1 359.1 300.4 319.9 308.1 317.3"/><polygon class="e04f68bd-2a21-4d13-82ff-52b3a3e6cc97" points="262 309.9 255.7 349.2 262.2 354 268.4 314.7 262 309.9"/><polygon class="bb7a81f5-dc2f-4906-bd7c-9eec4b81efb4" points="262 309.9 304.2 296.1 310.7 300.9 268.4 314.7 262 309.9"/><polygon class="bb7a81f5-dc2f-4906-bd7c-9eec4b81efb4" points="308.1 317.4 272.4 290.9 264.7 293.4 300.4 319.9 308.1 317.4"/><path class="bb7a81f5-dc2f-4906-bd7c-9eec4b81efb4" d="M286.9,302.1s-2.1-12-10.2-19.7l-.9,5.3-7-1.7s11.5,8.9,11.4,18.2Z"/><path class="bb7a81f5-dc2f-4906-bd7c-9eec4b81efb4" d="M285.2,301.8s5.8-10.7,15.9-15.5l-.9,5.3,7.2.6S293.8,297,291,305.9Z"/><polygon class="b61ce116-eee2-4484-bd65-0c7fc9183783" points="257.9 347.7 271.2 328.2 271.4 335.4 279.3 333.3 264.7 350.6 257.9 347.7"/><polygon class="f4455b0e-3158-474c-b5d0-1284094bc615" points="252.6 346.7 247.8 333.9 254.2 338 260.3 327.8 259 348.5 252.6 346.7"/><polygon class="b38348fd-70a9-4252-9c44-58acb2b48632" points="308.6 394.2 211.3 376.1 213.6 339.1 318.3 359.2 308.6 394.2"/><g class="a4b6f649-e20f-4068-a9bc-1d0c8bff8c8e"><polygon class="afd494e7-328a-4827-a8ed-11e79f36b4e7" points="224.2 378.5 226.2 378.9 212.1 363.1 212 364.8 224.2 378.5"/><polygon class="afd494e7-328a-4827-a8ed-11e79f36b4e7" points="270.6 350.1 268.6 349.7 308.2 394.1 308.6 394.2 308.9 393.1 270.6 350.1"/><polygon class="afd494e7-328a-4827-a8ed-11e79f36b4e7" points="213 348.4 212.9 350.1 241 381.7 243 382 213 348.4"/><polygon class="afd494e7-328a-4827-a8ed-11e79f36b4e7" points="253.7 346.8 251.7 346.4 291.4 391 293.4 391.4 253.7 346.8"/><polygon class="afd494e7-328a-4827-a8ed-11e79f36b4e7" points="236.8 343.6 234.8 343.2 274.6 387.9 276.6 388.3 236.8 343.6"/><polygon class="afd494e7-328a-4827-a8ed-11e79f36b4e7" points="219.9 340.4 217.9 340 257.8 384.8 259.8 385.1 219.9 340.4"/></g><path class="ec03fc9a-600d-4b56-a4d1-00071566d7f6" d="M291.3,391l17.3,3.2,9.7-35-22.9-4.4C294.3,362.9,291.8,382.1,291.3,391Z"/><polygon class="b61ce116-eee2-4484-bd65-0c7fc9183783" points="247.3 345.4 247.5 382.9 255.7 384.7 263 347.7 247.3 345.4"/><polygon class="b61ce116-eee2-4484-bd65-0c7fc9183783" points="211.1 356.1 293.8 369.5 315 373.5 311.8 383.8 291 378 211.6 363.9 211.1 356.1"/><polygon class="f4455b0e-3158-474c-b5d0-1284094bc615" points="293.4 369.4 292.6 378.5 311.8 383.8 315 373.5 293.8 369.5 293.4 369.4"/><polygon class="be2f52e4-8a0d-4ab4-a2e0-707549231fa5" points="343.4 325.8 313.7 351.7 352.1 360.5 381.8 334.6 343.4 325.8"/><polygon class="ba11dee2-f915-4d81-9236-c8f218be7c13" points="352.1 360.5 381.8 334.6 388.8 362.9 359.1 388.8 352.1 360.5"/><polygon class="bf65ba78-dff2-4eff-a280-397a92915a68" points="313.7 351.7 352.1 360.5 359.1 388.8 320.7 379.9 313.7 351.7"/><polygon class="ae920ce3-9d52-4979-8531-cfd44e15bd90" points="343.4 325.8 313.7 351.7 352.1 360.5 381.8 334.6 343.4 325.8"/><polygon class="bf65ba78-dff2-4eff-a280-397a92915a68" points="352.1 360.5 381.8 334.6 382.2 336.3 352.5 362.2 352.1 360.5"/><polygon class="bc411322-7533-4480-a812-5aa2f9c04e1b" points="313.7 351.7 352.1 360.5 352.5 362.2 314.1 353.3 313.7 351.7"/><polygon class="b8370404-f4f2-4383-ba92-3e6def256d94" points="340.7 315.1 308.9 342.7 350 352.2 381.7 324.6 340.7 315.1"/><polygon class="ba11dee2-f915-4d81-9236-c8f218be7c13" points="350 352.2 381.7 324.6 384 333.5 352.2 361.2 350 352.2"/><polygon class="bf65ba78-dff2-4eff-a280-397a92915a68" points="308.9 342.7 350 352.2 352.2 361.2 311.2 351.7 308.9 342.7"/><polygon class="ae920ce3-9d52-4979-8531-cfd44e15bd90" points="368.6 335.9 377.7 372.4 372 377.5 362.9 341 368.6 335.9"/><polygon class="ae920ce3-9d52-4979-8531-cfd44e15bd90" points="325.8 346.6 334.9 383.1 342.3 384.9 333.2 348.4 325.8 346.6"/><polygon class="b7f68459-e480-4da2-9ade-c1cf3123645b" points="325.8 346.6 357.4 318.8 364.8 320.6 333.2 348.4 325.8 346.6"/><polygon class="b7f68459-e480-4da2-9ade-c1cf3123645b" points="368.7 336 327.7 326.2 322 331.2 362.9 341 368.7 336"/><path class="b7f68459-e480-4da2-9ade-c1cf3123645b" d="M344.5,330.5s-6.3-9.7-16.2-13.3l1.3,5-6.8,1.1s13.2,3.4,16.7,11.5Z"/><path class="b7f68459-e480-4da2-9ade-c1cf3123645b" d="M343,330.9s1-11.5,8-19.4l1.3,5,6.4-2.1s-10,9.2-9.2,18Z"/><path class="bfee1e40-cf26-4dff-ab0d-8cc5670662ab" d="M84.1,360.2c.6,1.8-1.6,4.2-4.9,5.4s-6.6.6-7.3-1.2,1.6-4.3,5-5.4S83.5,358.4,84.1,360.2Z"/><path class="bfee1e40-cf26-4dff-ab0d-8cc5670662ab" d="M84.2,365.4c.6,1.8-2.8,4.5-7.5,6.1s-9.1,1.6-9.7-.2,2.7-4.5,7.5-6.1S83.6,363.7,84.2,365.4Z"/><path class="bfee1e40-cf26-4dff-ab0d-8cc5670662ab" d="M161.3,217.9c.5,1.6-1.5,3.8-4.5,4.9s-6,.5-6.5-1.1,1.4-3.8,4.4-4.9S160.7,216.2,161.3,217.9Z"/><path class="bfee1e40-cf26-4dff-ab0d-8cc5670662ab" d="M161.3,222.6c.6,1.6-2.5,4-6.8,5.5s-8.2,1.4-8.7-.2,2.5-4,6.8-5.5S160.8,221,161.3,222.6Z"/><path class="bfee1e40-cf26-4dff-ab0d-8cc5670662ab" d="M324.4,340.4c.7,1.8-1.6,4.2-4.9,5.3s-6.6.6-7.2-1.2,1.6-4.2,4.9-5.3S323.8,338.5,324.4,340.4Z"/><path class="bfee1e40-cf26-4dff-ab0d-8cc5670662ab" d="M324.5,345.6c.6,1.7-2.8,4.5-7.5,6.1s-9.1,1.5-9.7-.2,2.8-4.5,7.5-6.1S323.9,343.8,324.5,345.6Z"/><path class="bfee1e40-cf26-4dff-ab0d-8cc5670662ab" d="M226.8,245.4c.6,1.8-1.6,4.2-5,5.4s-6.6.6-7.2-1.2,1.6-4.3,5-5.4S226.2,243.6,226.8,245.4Z"/><path class="bfee1e40-cf26-4dff-ab0d-8cc5670662ab" d="M226.9,250.6c.6,1.8-2.8,4.5-7.5,6.1s-9.1,1.6-9.7-.2,2.7-4.5,7.5-6.1S226.3,248.9,226.9,250.6Z"/><path class="bfee1e40-cf26-4dff-ab0d-8cc5670662ab" d="M56.3,280a3.6,3.6,0,1,1-3.6-3.6h0A3.6,3.6,0,0,1,56.3,280Z"/><path class="bfee1e40-cf26-4dff-ab0d-8cc5670662ab" d="M324.5,273.5a3.6,3.6,0,1,1-3.6-3.5,3.6,3.6,0,0,1,3.6,3.5Z"/><circle class="bfee1e40-cf26-4dff-ab0d-8cc5670662ab" cx="134.8" cy="342.4" r="3.2"/><circle class="bfee1e40-cf26-4dff-ab0d-8cc5670662ab" cx="222.2" cy="308.6" r="3.6"/><circle class="bfee1e40-cf26-4dff-ab0d-8cc5670662ab" cx="228.1" cy="313.4" r="6.4"/><path class="a9083bfa-de72-4e91-a2ff-db0b9947bc1f" d="M69.6,256s80.1,14.3,150.6-36.5C183.1,208.9,116.3,213,69.6,256Z"/><path class="a9083bfa-de72-4e91-a2ff-db0b9947bc1f" d="M75.4,179.2s24.7,3.9,66.6-6,45.1-15.5,45.1-15.5-26.1-17.5-55.8-8S75.4,179.2,75.4,179.2Z"/><path class="ad9a123a-eabd-431b-90ef-c8a009f2c4b1" d="M101.1,125.8s-5.8,22.7-29.6,43.8c1.3,4,8.7-1.1,8.7-1.1s-3.4,8.9-6.5,11.3c9.9-3.4,54.1-36.4,113.4-22.1-4.7-6.1-15.2-10.3-15.2-10.3a18.7,18.7,0,0,0,8.5-1.6c-15-5.7-19-12.3-19-12.3s6,.6,9.6-2c-7.9-2.4-30.3-6.4-37.2-27.3a49.7,49.7,0,0,0,8.4,1.6c-5.3-2.1-22.8-13.5-30.5-28.3-2.5,15.1-10.8,39.9-21.4,48.7A65,65,0,0,0,101.1,125.8Z"/><path class="ad9a123a-eabd-431b-90ef-c8a009f2c4b1" d="M166.3,163.1s12.1,11.3,22.1,13.3c-4.4,3.1-17.7,3-17.7,3s18.5,13,35.1,15.9c-4.7,4.7-17,2.7-13.3,4.6S205.4,214,222,219.2c0,0-98.8-1.8-152.4,36.8l9.1-16.4-12.3,2.7c4.9-4,23.2-34.7,25-38.4-11.1,7.2-16.2,7.4-16.2,7.4s18.2-26.4,21.4-32.9C96.6,178.4,120.4,160.1,166.3,163.1Z"/><path class="be1cbea0-36d7-481d-ae86-9bc76b2026e2" d="M269.7,312.3s-95.7,60.6-210.3,38C98.8,316.6,188.6,286,269.7,312.3Z"/><path class="ad9a123a-eabd-431b-90ef-c8a009f2c4b1" d="M98.6,250S91.1,273.6,80,281.7c7,1.2,23.2-6.3,23.2-6.3s-15.3,26.3-33.9,39.1c8.3,3.1,22.3-6.2,18.7-1.9s-11.7,22.1-28.9,37.7c0,0,123.5-55.1,210.6-38l-20.3-14.8,16.5-3.7c-8.2-2.1-47.7-29.4-52.1-32.9,17.7,2.6,23.9,0,23.9,0s-36.9-22.1-44.5-28.3C193.2,232.6,164.3,221.6,98.6,250Z"/><path class="ad9a123a-eabd-431b-90ef-c8a009f2c4b1" d="M152.1,317.5s-6.4,9-3.9,15.8c0,0,4.3-12.2,14.3-17.2,0,0-1.4,6.4,2.1,10,0,0,5.8-9.3,9-13.9s-14.3-2.9-14.3-2.9Z"/><path class="ad9a123a-eabd-431b-90ef-c8a009f2c4b1" d="M130.2,228.5s3.6,4,12.9,4.4l-4.5-2.8a42.6,42.6,0,0,0,10.7.2c-3.7-.7-8.9-5-8.9-5Z"/><path class="ad9a123a-eabd-431b-90ef-c8a009f2c4b1" d="M182.2,308.2s16.4,20.4,37.9,13.3c0,0-31.9-5.1-35.1-19Z"/><path class="a9083bfa-de72-4e91-a2ff-db0b9947bc1f" d="M201.1,227.4a31.4,31.4,0,0,0,17.2-.4,33.5,33.5,0,0,1-14.7,4.7s1.1,3.2,6.8,3.6c-3.9,2.1-9.3.3-13.6-3.3S201.1,227.4,201.1,227.4Z"/><path class="a9083bfa-de72-4e91-a2ff-db0b9947bc1f" d="M86,252.4s-.4,10.4-13.6,12.2c7.9,0,13.9-2.5,17.5-8.2l1.1,5.7,2.8-7.5Z"/><path class="ad9a123a-eabd-431b-90ef-c8a009f2c4b1" d="M132.6,154.3s11.1,8.4,23.8,6.5c0,0-7.1-.6-11.2-4.2a33.5,33.5,0,0,0,10-.1,13.1,13.1,0,0,1-8.3-4C143.5,148.7,132.6,154.3,132.6,154.3Z"/><path class="ad9a123a-eabd-431b-90ef-c8a009f2c4b1" d="M211.1,258.5s25.4,24.3,55.1,10C254.1,275.7,225.1,287.5,211.1,258.5Z"/><path class="ad9a123a-eabd-431b-90ef-c8a009f2c4b1" d="M211.6,184.1s-26,6.7-47-14.1C170,189.9,197.9,195.4,211.6,184.1Z"/><path class="ad9a123a-eabd-431b-90ef-c8a009f2c4b1" d="M104.9,119.3a34.1,34.1,0,0,1-25.7,19.1C91.7,143.4,105.5,130.9,104.9,119.3Z"/><path class="ad9a123a-eabd-431b-90ef-c8a009f2c4b1" d="M110.3,89.9A33.8,33.8,0,0,1,84.6,109C97.1,114,110.9,101.6,110.3,89.9Z"/><path class="a4a9ddf9-631a-4868-ac9b-961a54cb4809" d="M171,191.6a34,34,0,0,1-27.3-16.9C143.7,188.2,160.4,196.4,171,191.6Z"/><path class="a4a9ddf9-631a-4868-ac9b-961a54cb4809" d="M147.2,135.3a16.8,16.8,0,0,1-13.5-8.3C133.7,133.7,142,137.7,147.2,135.3Z"/><path class="a4a9ddf9-631a-4868-ac9b-961a54cb4809" d="M162,263.6A25.6,25.6,0,0,1,141.5,251C141.6,261.1,154.1,267.2,162,263.6Z"/><path class="a4a9ddf9-631a-4868-ac9b-961a54cb4809" d="M117.7,219.2a34,34,0,0,1-13.6,29.1C117.6,246.7,123.7,229.1,117.7,219.2Z"/><path class="a4a9ddf9-631a-4868-ac9b-961a54cb4809" d="M108,189.4a16.2,16.2,0,0,1-6.5,13.7C107.9,202.4,110.8,194.1,108,189.4Z"/><path class="ad9a123a-eabd-431b-90ef-c8a009f2c4b1" d="M150.4,111.7a23.6,23.6,0,0,1-19.3-10.5C131.7,110.5,143.4,115.4,150.4,111.7Z"/><path class="a4a9ddf9-631a-4868-ac9b-961a54cb4809" d="M171.3,245.8s9.1,15,25.7,15.6c0,0-9.1-3.8-12.9-9.7,0,0,10.8,5.4,21,4.3,0,0-23.6-10.2-31.7-22,0,0,1.1,11,7.5,16.4Z"/><path class="a4a9ddf9-631a-4868-ac9b-961a54cb4809" d="M113.5,134.8s6,12.5,19,14.2c0,0-6.8-3.7-9.3-8.6,0,0,8,5,16.1,5,0,0-17.8-9.9-23.2-19.7,0,0,0,8.7,4.7,13.4Z"/><path class="a4a9ddf9-631a-4868-ac9b-961a54cb4809" d="M131.1,308.7s6.9-7.2,4.7-16.3c0,0-.7,5.5-3.3,8.4,0,0,1.3-6.7-.8-12.1,0,0-2.1,14.4-7.3,20.5,0,0,5.8-2.2,7.8-6.4Z"/><path class="a4a9ddf9-631a-4868-ac9b-961a54cb4809" d="M188.6,267.8s5.4,4.3,15.4,4.7C199.3,276.4,190,274.2,188.6,267.8Z"/><path class="a4a9ddf9-631a-4868-ac9b-961a54cb4809" d="M104.8,321.2s5.5-4.1,8.3-13.7C115.8,312.9,111.4,321.4,104.8,321.2Z"/><path class="eb8c50de-85a3-4748-9793-d2e4d9b31fe9" d="M159.2,339.2s15.8,23,3.7,107.4c0,0,12.1,7.2,32.1-5,0,0,6-57.5-15.4-107.5C179.6,334.1,173.5,328.9,159.2,339.2Z"/><path class="eead050b-90c5-4aa3-b88e-3b817a0ecd7e" d="M166.8,345.1s4.7,14.2,3.5,22.2C170.3,367.3,166.5,354.3,166.8,345.1Z"/><polygon class="eead050b-90c5-4aa3-b88e-3b817a0ecd7e" points="178.1 355.4 184 376.5 184.7 376.5 179.5 353.3 178.1 355.4"/><path class="eead050b-90c5-4aa3-b88e-3b817a0ecd7e" d="M187.3,356.1c-.2,5.1.4,18.6,5.4,25.5A222.3,222.3,0,0,0,187.3,356.1Z"/><path class="f295bb39-35fc-4748-a681-8d38345d7539" d="M179.6,334.1a8.3,8.3,0,0,0-5-1.4,417.7,417.7,0,0,1,15.6,69.7c-2.1-24.3-5.3-49.2-10.4-67.8Z"/><path class="f295bb39-35fc-4748-a681-8d38345d7539" d="M164.2,353.6a148.9,148.9,0,0,1,3,25.8c5.3,27.2,2.5,52.4-.8,68.6a27,27,0,0,0,4.1.6C178.6,408.6,168.3,367.4,164.2,353.6Z"/><path class="f295bb39-35fc-4748-a681-8d38345d7539" d="M184.4,446.7c2.9-30.1.8-69.2-16.4-112.5a21.1,21.1,0,0,0-3.4,1.6c4.8,16.5,17.7,66.1,14.3,112.3A34.1,34.1,0,0,0,184.4,446.7Z"/><path class="f295bb39-35fc-4748-a681-8d38345d7539" d="M179.6,334.1s-6.1-5.2-20.4,5.1a27.5,27.5,0,0,1,2.3,4.9,50.9,50.9,0,0,0,24.3,6.9A148.9,148.9,0,0,0,179.6,334.1Z"/></g><path class="a6dfe5a4-8104-4b61-8714-324fcc1b1579" d="M87.4,292.1a50.6,50.6,0,0,1-15.9,8.8c-5,1.7-10.5,3.1-14.6,6.5s-6,7.6-5,12.1,5.9,7.9,10.4,9.4c11,3.5,22.4-1.1,31.6-7,5.3-3.3,10.3-6.9,15.4-10.4l16.1-11.2c5-3.4,10.1-7.1,15.6-9.8a59.1,59.1,0,0,1,16.9-4.7c12.1-1.4,24.1.4,35.9,2.8s24.5,5.5,37,6.3c10.7.6,22.7-.7,30.8-8.6a21.7,21.7,0,0,0,6.4-12.2c.7-4.9-.7-10.1-4.7-13.2s-8.9-3.6-13.5-4.2c-6.5-.8-12.9-1.5-19.4-2.1l-9.8-.7c-.7-.1-.7,1,0,1,6.3.5,12.6,1,18.8,1.7l9.5,1.1a45.2,45.2,0,0,1,7.5,1.2,18,18,0,0,1,6.6,3,11.6,11.6,0,0,1,3.8,6.7,17.7,17.7,0,0,1-3.3,13.9c-6.5,9-17.9,11.5-28.4,11.5-12.2-.1-24.1-2.9-35.9-5.4s-22.5-4.5-34.1-4.3a66.4,66.4,0,0,0-16,2.2,56.2,56.2,0,0,0-15.2,6.8c-5.1,3.2-10,6.8-15,10.2l-15.4,10.7c-9.2,6.4-19,13.7-30.6,14.7a23.8,23.8,0,0,1-15.2-3.4,10.8,10.8,0,0,1-4.7-6,10,10,0,0,1,1.1-7c2.6-4.8,7.5-7.1,12.4-8.8s10.2-3.4,15-6.2a59.9,59.9,0,0,0,6.6-4.6c.6-.4-.2-1.2-.7-.8Z"/><path class="ad9a123a-eabd-431b-90ef-c8a009f2c4b1" d="M108.5,268.3S95.6,291.9,66.1,293C84.4,302.7,107.4,286,108.5,268.3Z"/><path class="ad9a123a-eabd-431b-90ef-c8a009f2c4b1" d="M250.8,246.4a45.9,45.9,0,0,1-43.3,1.9C217.8,263.4,242.7,259.8,250.8,246.4Z"/><path class="b61ce116-eee2-4484-bd65-0c7fc9183783" d="M63.4,306.1a3.6,3.6,0,0,1-3.5,3.6,3.6,3.6,0,0,1-.1-7.2h.1A3.6,3.6,0,0,1,63.4,306.1Z"/><path class="a6dfe5a4-8104-4b61-8714-324fcc1b1579" d="M62,304.9a1.2,1.2,0,1,1-2.4,0,1.2,1.2,0,0,1,1.2-1.1h0A1.2,1.2,0,0,1,62,304.9Z"/><path class="b61ce116-eee2-4484-bd65-0c7fc9183783" d="M128.6,298.1a3.6,3.6,0,1,1-3.6-3.6h0a3.6,3.6,0,0,1,3.6,3.6Z"/><path class="a6dfe5a4-8104-4b61-8714-324fcc1b1579" d="M127.1,297a1.2,1.2,0,0,1-1.2,1.2,1.2,1.2,0,0,1,0-2.4h0A1.2,1.2,0,0,1,127.1,297Z"/><path class="b61ce116-eee2-4484-bd65-0c7fc9183783" d="M249.1,293.4a3.6,3.6,0,0,1-7.1,0,3.6,3.6,0,0,1,3.6-3.6h0a3.5,3.5,0,0,1,3.5,3.5Z"/><path class="a6dfe5a4-8104-4b61-8714-324fcc1b1579" d="M247.6,292.2a1.2,1.2,0,0,1-1.2,1.2,1.1,1.1,0,0,1-1.1-1.2,1.2,1.2,0,0,1,1.1-1.2h0A1.2,1.2,0,0,1,247.6,292.2Z"/><path class="b61ce116-eee2-4484-bd65-0c7fc9183783" d="M192.5,286.9a3.6,3.6,0,1,1-3.6-3.6h0a3.6,3.6,0,0,1,3.6,3.6Z"/><path class="a6dfe5a4-8104-4b61-8714-324fcc1b1579" d="M191,285.8a1.1,1.1,0,0,1-1.1,1.1,1.1,1.1,0,0,1-1.2-1.1,1.2,1.2,0,0,1,1.2-1.2h0A1.1,1.1,0,0,1,191,285.8Z"/><path class="b61ce116-eee2-4484-bd65-0c7fc9183783" d="M64.5,327.5a2.9,2.9,0,1,1-2.9-2.8h0a2.8,2.8,0,0,1,2.9,2.8Z"/><path class="a6dfe5a4-8104-4b61-8714-324fcc1b1579" d="M63.3,326.6a.9.9,0,1,1-1.8.2v-.2a.8.8,0,0,1,1-.8A.9.9,0,0,1,63.3,326.6Z"/><path class="b61ce116-eee2-4484-bd65-0c7fc9183783" d="M55.2,317.2a2.5,2.5,0,0,1-5,0,2.5,2.5,0,0,1,2.5-2.5h0A2.5,2.5,0,0,1,55.2,317.2Z"/><path class="a6dfe5a4-8104-4b61-8714-324fcc1b1579" d="M54.2,316.5a.9.9,0,0,1-.8.8.9.9,0,0,1-.9-.8.9.9,0,0,1,.9-.9.9.9,0,0,1,.8.9Z"/><path class="b61ce116-eee2-4484-bd65-0c7fc9183783" d="M78.3,328.3a2.5,2.5,0,1,1-2.5-2.5h0A2.5,2.5,0,0,1,78.3,328.3Z"/><circle class="a6dfe5a4-8104-4b61-8714-324fcc1b1579" cx="76.4" cy="327.5" r="0.8"/><circle class="b61ce116-eee2-4484-bd65-0c7fc9183783" cx="101" cy="316.4" r="1.6"/><circle class="a6dfe5a4-8104-4b61-8714-324fcc1b1579" cx="101.4" cy="315.8" r="0.5"/><circle class="b61ce116-eee2-4484-bd65-0c7fc9183783" cx="90.1" cy="323.5" r="2.5"/><path class="a6dfe5a4-8104-4b61-8714-324fcc1b1579" d="M91.6,322.8a.9.9,0,0,1-.8.8.8.8,0,0,1-.8-.8.8.8,0,0,1,.8-.9.9.9,0,0,1,.8.9Z"/><path class="b61ce116-eee2-4484-bd65-0c7fc9183783" d="M157.6,286.3a2.6,2.6,0,1,1-2.6-2.5h.1A2.5,2.5,0,0,1,157.6,286.3Z"/><path class="a6dfe5a4-8104-4b61-8714-324fcc1b1579" d="M156.5,285.5a.7.7,0,0,1-.8.8.8.8,0,0,1-.8-.8.9.9,0,0,1,.8-.8.8.8,0,0,1,.8.8Z"/><path class="b61ce116-eee2-4484-bd65-0c7fc9183783" d="M114.8,308.1a2.5,2.5,0,0,1-5,0,2.5,2.5,0,0,1,2.5-2.5h0A2.5,2.5,0,0,1,114.8,308.1Z"/><path class="a6dfe5a4-8104-4b61-8714-324fcc1b1579" d="M113.8,307.3a.8.8,0,0,1-.8.8.8.8,0,0,1-.9-.8.9.9,0,0,1,.9-.8h0A.9.9,0,0,1,113.8,307.3Z"/><circle class="b61ce116-eee2-4484-bd65-0c7fc9183783" cx="170.9" cy="284.7" r="2.5"/><path class="a6dfe5a4-8104-4b61-8714-324fcc1b1579" d="M172.3,283.9a.7.7,0,0,1-.8.8.8.8,0,0,1-.8-.8.9.9,0,0,1,.8-.8h0A.8.8,0,0,1,172.3,283.9Z"/><path class="b61ce116-eee2-4484-bd65-0c7fc9183783" d="M210.9,290.3a2.5,2.5,0,0,1-2.5,2.5,2.4,2.4,0,0,1-2.5-2.4,2.6,2.6,0,0,1,2.5-2.6h0A2.5,2.5,0,0,1,210.9,290.3Z"/><path class="a6dfe5a4-8104-4b61-8714-324fcc1b1579" d="M209.9,289.5a.9.9,0,0,1-.8.8.8.8,0,0,1-.8-.8.7.7,0,0,1,.8-.8.8.8,0,0,1,.8.8Z"/><path class="b61ce116-eee2-4484-bd65-0c7fc9183783" d="M231.7,294.1a2.5,2.5,0,1,1-2.5-2.5h0A2.5,2.5,0,0,1,231.7,294.1Z"/><path class="a6dfe5a4-8104-4b61-8714-324fcc1b1579" d="M230.6,293.3a.8.8,0,0,1-.8.8.9.9,0,0,1-.8-.8.8.8,0,0,1,.8-.8.7.7,0,0,1,.8.8Z"/><path class="b61ce116-eee2-4484-bd65-0c7fc9183783" d="M261.9,287.3a2.6,2.6,0,0,1-2.5,2.6,2.5,2.5,0,0,1-2.5-2.5,2.6,2.6,0,0,1,2.5-2.6h0A2.5,2.5,0,0,1,261.9,287.3Z"/><path class="a6dfe5a4-8104-4b61-8714-324fcc1b1579" d="M260.9,286.6a.9.9,0,0,1-.9.8.9.9,0,0,1-.8-.8.8.8,0,0,1,.8-.8.8.8,0,0,1,.9.8Z"/><path class="b61ce116-eee2-4484-bd65-0c7fc9183783" d="M270.2,274.5a2.5,2.5,0,1,1-2.5-2.5h0A2.5,2.5,0,0,1,270.2,274.5Z"/><path class="a6dfe5a4-8104-4b61-8714-324fcc1b1579" d="M269.2,273.7a.8.8,0,0,1-.8.8.8.8,0,0,1-.9-.8.9.9,0,0,1,.9-.8.9.9,0,0,1,.8.8Z"/><path class="b61ce116-eee2-4484-bd65-0c7fc9183783" d="M261.1,259a2.5,2.5,0,1,1-2.5-2.6h0A2.6,2.6,0,0,1,261.1,259Z"/><path class="a6dfe5a4-8104-4b61-8714-324fcc1b1579" d="M260.1,258.2a.9.9,0,0,1-.8.8.8.8,0,0,1-.8-.8.8.8,0,0,1,.8-.9.9.9,0,0,1,.8.9Z"/><path class="b61ce116-eee2-4484-bd65-0c7fc9183783" d="M143.6,289.8a2.5,2.5,0,1,1-2.5-2.5h0A2.5,2.5,0,0,1,143.6,289.8Z"/><path class="a6dfe5a4-8104-4b61-8714-324fcc1b1579" d="M142.6,289a.9.9,0,0,1-.9.8.9.9,0,0,1-.8-.8.8.8,0,0,1,.8-.8.8.8,0,0,1,.9.8Z"/><g class="f1c410a8-3d34-433e-aea0-c47a0e0bad17"><path class="a6dfe5a4-8104-4b61-8714-324fcc1b1579" d="M179.7,175.4l.2-7.8,1.5.5a17.3,17.3,0,0,1,6.9,5.4l-6.1,3.9A8.2,8.2,0,0,0,179.7,175.4Z"/><path class="a6dfe5a4-8104-4b61-8714-324fcc1b1579" d="M191.6,185.7c-2.2-.1-4.3-.2-6.5-.5h-.8a9.4,9.4,0,0,0-.2-4.1c2-1.4,4.1-2.8,6.2-4A17.2,17.2,0,0,1,191.6,185.7Z"/><path class="a5bde7a5-3b68-44e2-bbfd-c21014a8a5e5" d="M152.6,212.6l-2.6-3.5-2.6-2.9,3.4-8.2c1.7,2.2,3.4,4.4,5.2,6.5Z"/><path class="a6dfe5a4-8104-4b61-8714-324fcc1b1579" d="M190.6,189.7a.8.8,0,0,1-.2.4,3.6,3.6,0,0,1-4.7,1.9,3.6,3.6,0,0,1-2.2-3l3.7.6Z"/><path class="a5bde7a5-3b68-44e2-bbfd-c21014a8a5e5" d="M150.7,217.1l-2,4.7a3.6,3.6,0,0,1-6.6-2.8l3.6-8.7a18.4,18.4,0,0,1,1.7,2.2A38.3,38.3,0,0,1,150.7,217.1Z"/><path class="a6dfe5a4-8104-4b61-8714-324fcc1b1579" d="M157.7,200.3l-5.1-6.6,3.7-8.8,5,6.7Z"/><path class="a6dfe5a4-8104-4b61-8714-324fcc1b1579" d="M159.5,177.2a17,17,0,0,1,3.6-5.4l3.3,7.7-.3.5-3,7.4-5.1-6.8Z"/><path class="a6dfe5a4-8104-4b61-8714-324fcc1b1579" d="M175.9,166.9c0,2.4-.1,4.8-.1,7.2a9.6,9.6,0,0,0-6.5,1.9c-.9-2.3-1.9-4.5-2.8-6.8A16.3,16.3,0,0,1,175.9,166.9Z"/><path class="ad255920-e28c-43fd-b56f-b942df6d3744" d="M152.6,212.6l-1.9,4.5c-1.1-1.6-2.1-3.2-3.2-4.7l-1.8-2.1,1.8-4.2,2.5,3Z"/><path class="ad255920-e28c-43fd-b56f-b942df6d3744" d="M156,204.5l-5.2-6.4,1.8-4.3c1.6,2.2,3.3,4.4,5.1,6.5Z"/><polygon class="ad255920-e28c-43fd-b56f-b942df6d3744" points="163.1 187.3 161.3 191.6 156.3 184.9 158.1 180.5 163.1 187.3"/><path class="ad255920-e28c-43fd-b56f-b942df6d3744" d="M166.4,169.2l2.9,6.8a9.9,9.9,0,0,0-2.9,3.5l-3.2-7.8A19.6,19.6,0,0,1,166.4,169.2Z"/><path class="ad255920-e28c-43fd-b56f-b942df6d3744" d="M182.2,177.4l6.1-3.9a15.1,15.1,0,0,1,2,3.5c-2.1,1.2-4.2,2.6-6.2,4A10.4,10.4,0,0,0,182.2,177.4Z"/><path class="ad255920-e28c-43fd-b56f-b942df6d3744" d="M179.9,167.6l-.2,7.8-1-.6a9.5,9.5,0,0,0-2.9-.7c.1-2.4.1-4.8.2-7.2A17.8,17.8,0,0,1,179.9,167.6Z"/><path class="ad255920-e28c-43fd-b56f-b942df6d3744" d="M191.6,185.7a18,18,0,0,1-1,4,18.8,18.8,0,0,1-3.4-.2l-3.7-.5a3.2,3.2,0,0,1,.2-1.7,9,9,0,0,0,.6-2.2h.9C187.3,185.5,189.4,185.6,191.6,185.7Z"/></g><g class="e18bd29e-e236-4457-b7d6-75bf01bac518"><path class="a6dfe5a4-8104-4b61-8714-324fcc1b1579" d="M87.4,139.9c0-1.5-.1-3-.1-4.6l-.9.3a10,10,0,0,0-4.1,3.3,31.7,31.7,0,0,1,3.6,2.3A4.7,4.7,0,0,1,87.4,139.9Z"/><path class="a6dfe5a4-8104-4b61-8714-324fcc1b1579" d="M80.4,146a24.3,24.3,0,0,0,3.8-.3h.5a4.9,4.9,0,0,1,.1-2.4l-3.7-2.4A10.3,10.3,0,0,0,80.4,146Z"/><path class="a5bde7a5-3b68-44e2-bbfd-c21014a8a5e5" d="M103.4,161.9l1.6-2.1,1.5-1.7-2-4.9c-1,1.3-2,2.6-3.1,3.8Z"/><path class="a6dfe5a4-8104-4b61-8714-324fcc1b1579" d="M81,148.4v.2a2.1,2.1,0,0,0,2.8,1.1,2.3,2.3,0,0,0,1.3-1.7,14.6,14.6,0,0,0-2.2.3Z"/><path class="a5bde7a5-3b68-44e2-bbfd-c21014a8a5e5" d="M104.5,164.5l1.2,2.8a2.2,2.2,0,0,0,2.9,1,2.1,2.1,0,0,0,1-2.6l-2.1-5.2-1.1,1.3Z"/><path class="a6dfe5a4-8104-4b61-8714-324fcc1b1579" d="M100.4,154.6c1.1-1.3,2-2.5,3-3.9l-2.1-5.2-3,4Z"/><path class="a6dfe5a4-8104-4b61-8714-324fcc1b1579" d="M99.3,141a11.5,11.5,0,0,0-2.1-3.3l-1.9,4.6v.3l1.8,4.3,3-4Z"/><path class="a6dfe5a4-8104-4b61-8714-324fcc1b1579" d="M89.6,134.9c0,1.4.1,2.8.1,4.3a6,6,0,0,1,3.9,1.1l1.6-4A10,10,0,0,0,89.6,134.9Z"/><path class="ad255920-e28c-43fd-b56f-b942df6d3744" d="M103.4,161.9l1.1,2.6,1.9-2.7,1.1-1.3-1.1-2.4-1.5,1.7Z"/><path class="ad255920-e28c-43fd-b56f-b942df6d3744" d="M101.4,157.1l3.1-3.8-1.1-2.6-3,3.9Z"/><polygon class="ad255920-e28c-43fd-b56f-b942df6d3744" points="97.2 147 98.3 149.5 101.2 145.5 100.2 143 97.2 147"/><path class="ad255920-e28c-43fd-b56f-b942df6d3744" d="M95.2,136.3l-1.6,4a5.5,5.5,0,0,1,1.7,2l1.9-4.5A7.5,7.5,0,0,0,95.2,136.3Z"/><path class="ad255920-e28c-43fd-b56f-b942df6d3744" d="M85.9,141.1l-3.6-2.3-1.2,2,3.7,2.4A5.3,5.3,0,0,1,85.9,141.1Z"/><path class="ad255920-e28c-43fd-b56f-b942df6d3744" d="M87.3,135.3c0,1.6.1,3.1.1,4.6l.7-.3a4.7,4.7,0,0,1,1.6-.4c0-1.5,0-2.9-.1-4.3A8.5,8.5,0,0,0,87.3,135.3Z"/><path class="ad255920-e28c-43fd-b56f-b942df6d3744" d="M80.4,146a10.5,10.5,0,0,0,.6,2.4h2l2.1-.3a2.1,2.1,0,0,0-.1-1.1,5,5,0,0,1-.4-1.3h-.4A24.3,24.3,0,0,1,80.4,146Z"/></g><circle class="b7f68459-e480-4da2-9ade-c1cf3123645b" cx="84.4" cy="221.9" r="7"/><path class="bfee1e40-cf26-4dff-ab0d-8cc5670662ab" d="M88.2,219.6a2.4,2.4,0,0,1-2.4,2.4,2.4,2.4,0,1,1,0-4.8h0A2.4,2.4,0,0,1,88.2,219.6Z"/><circle class="b7f68459-e480-4da2-9ade-c1cf3123645b" cx="121.9" cy="182.6" r="5.9"/><circle class="bfee1e40-cf26-4dff-ab0d-8cc5670662ab" cx="123.2" cy="180.6" r="2"/><circle class="b7f68459-e480-4da2-9ade-c1cf3123645b" cx="154.5" cy="242.8" r="5.9"/><path class="bfee1e40-cf26-4dff-ab0d-8cc5670662ab" d="M157.7,240.8a2,2,0,0,1-4,0,2,2,0,1,1,4,0Z"/><polygon class="bfee1e40-cf26-4dff-ab0d-8cc5670662ab" points="154.7 158.3 155.8 161.9 161.4 166.5 159.5 160.1 156.3 156.4 154.7 158.3"/><polygon class="bfee1e40-cf26-4dff-ab0d-8cc5670662ab" points="146.1 146.2 141.8 142.5 147.7 137.8 149.2 144.4 146.1 146.2"/><path class="b61ce116-eee2-4484-bd65-0c7fc9183783" d="M158.5,147.4a8.6,8.6,0,0,1-3.1,11.8,8.6,8.6,0,1,1,3-11.8Z"/><path class="bfee1e40-cf26-4dff-ab0d-8cc5670662ab" d="M153.7,146.9a2.9,2.9,0,1,1-5.1,2.9,2.9,2.9,0,0,1,1-4,3.1,3.1,0,0,1,4.1,1Z"/><line class="f5410446-eef6-4ecb-869b-a1e1b0cbdc28" x1="146" y1="141.7" x2="129.2" y2="116.4"/><path class="bfee1e40-cf26-4dff-ab0d-8cc5670662ab" d="M129.9,115a1.6,1.6,0,0,1-.5,2.1,1.5,1.5,0,0,1-2.1-.6,1.4,1.4,0,0,1,.5-2h0A1.5,1.5,0,0,1,129.9,115Z"/><polygon class="bfee1e40-cf26-4dff-ab0d-8cc5670662ab" points="131 244.4 130.3 247 132.2 252.1 133.3 247.3 132.7 243.7 131 244.4"/><polygon class="bfee1e40-cf26-4dff-ab0d-8cc5670662ab" points="130 233.3 128.7 229.3 134.3 228.5 132.7 233.3 130 233.3"/><path class="b61ce116-eee2-4484-bd65-0c7fc9183783" d="M137.5,238.8a6.4,6.4,0,0,1-12.8,0,6.4,6.4,0,0,1,6.3-6.4,6.4,6.4,0,0,1,6.5,6.3Z"/><circle class="bfee1e40-cf26-4dff-ab0d-8cc5670662ab" cx="132.4" cy="236.6" r="2.2"/><line class="ad6a4855-4868-41a5-9ec1-38e4733b2541" x1="131.6" y1="230.4" x2="130.5" y2="207.9"/><path class="bfee1e40-cf26-4dff-ab0d-8cc5670662ab" d="M131.5,207.2a1.1,1.1,0,0,1-1.1,1.1,1.1,1.1,0,1,1,0-2.2h0A1.1,1.1,0,0,1,131.5,207.2Z"/><path class="bfee1e40-cf26-4dff-ab0d-8cc5670662ab" d="M104.8,289.5l-.2-4.5h1.9v4.7l3.4-2.6,1.3,2-3,2.1h4.3l-.2,2.4-3.8-.5,2.8,4.3-2,.9-2.5-3.9-.5,5.8h-2.1l.4-5.6-2.5,3.3-1.5-2.2,3.4-2.5H99.9v-2l4.3.2-3-2.7,1.5-1.1Z"/><path class="bfee1e40-cf26-4dff-ab0d-8cc5670662ab" d="M165.3,299.9l-.3-4.5h2v4.7l3.4-2.6,1.3,2-3,2.1H173l-.2,2.4-3.9-.5,2.8,4.3-1.9.9-2.6-3.9-.4,5.8h-2.2l.4-5.6-2.5,3.3-1.5-2.2,3.4-2.5h-4.1v-2l4.3.2-3-2.7,1.5-1.1Z"/><path class="bfee1e40-cf26-4dff-ab0d-8cc5670662ab" d="M176.3,206.6l-.2-4.5H178v4.7l3.4-2.6,1.3,1.9-3,2.2H184l-.2,2.3-3.8-.4,2.7,4.3-1.9.9-2.6-3.9-.4,5.8h-2.1l.4-5.6-2.6,3.2-1.5-2.1,3.5-2.6h-4.1v-1.9l4.3.2-3-2.8,1.5-1.1Z"/><path class="bfee1e40-cf26-4dff-ab0d-8cc5670662ab" d="M219,274.4v-3.1h1.3v3.3l2.4-1.8.8,1.3-2,1.5h2.9v1.6l-2.7-.3,1.9,3-1.3.6-1.8-2.7-.3,4.1h-1.4l.3-3.9-1.8,2.2-1.1-1.5,2.4-1.8h-2.8v-1.3h2.9l-2.1-1.9,1.1-.7Z"/><path class="bfee1e40-cf26-4dff-ab0d-8cc5670662ab" d="M101.9,218.8v-3.1h1.3V219l2.4-1.8.9,1.3-2.1,1.5h3l-.2,1.7-2.6-.3,1.9,2.9-1.4.6-1.7-2.6-.3,4h-1.5l.3-3.9-1.8,2.2-1.1-1.4,2.4-1.8H98.5V220l3,.2-2.1-2,1.1-.7Z"/><path class="ad9a123a-eabd-431b-90ef-c8a009f2c4b1" d="M53.8,214.7s10.7-3.2,12.9-13.4C67.7,212,62.9,217.4,53.8,214.7Z"/><path class="ad9a123a-eabd-431b-90ef-c8a009f2c4b1" d="M214.6,199.1s6.7,8.9,17.1,7.4C222,211.2,215.2,208.6,214.6,199.1Z"/><path class="ad9a123a-eabd-431b-90ef-c8a009f2c4b1" d="M152.4,95s6.7,9,17,7.4C159.7,107.2,153,104.5,152.4,95Z"/><path class="ad9a123a-eabd-431b-90ef-c8a009f2c4b1" d="M303.2,122.4s7,6.5,20.9,4.3C319.3,129.9,308.6,132.1,303.2,122.4Z"/><path class="ad9a123a-eabd-431b-90ef-c8a009f2c4b1" d="M263.9,214.4s9.3-1.8,15.8-14.4C279.5,205.8,274.9,215.8,263.9,214.4Z"/></g></g></svg>