<svg xmlns="http://www.w3.org/2000/svg" xmlns:xlink="http://www.w3.org/1999/xlink" viewBox="0 0 368.93 379.02"><defs><style>.cls-1,.cls-35,.cls-36{fill:none;}.cls-2{fill:#24a471;}.cls-3{clip-path:url(#clip-path);}.cls-4{fill:#247856;}.cls-5{fill:#fff;}.cls-6{fill:#00644c;}.cls-7{fill:#ff6075;}.cls-8{fill:#fc5250;}.cls-9{fill:#d8373c;}.cls-10{fill:#b3373c;}.cls-11{fill:#dbdbdb;}.cls-12{fill:#f5f5f8;}.cls-13{fill:#ffaa3f;}.cls-14{fill:#f5803f;}.cls-15{fill:#874de9;}.cls-16{opacity:0.36;}.cls-17{fill:#f9fbfc;}.cls-18{fill:#6d37c6;}.cls-19{fill:#fdbb11;}.cls-20{fill:#ffa000;}.cls-21{fill:#f26e21;}.cls-22{fill:#ffce4e;}.cls-23{fill:#eb3d3e;}.cls-24{fill:#f1ede4;}.cls-25{fill:#003f2c;}.cls-26{fill:#0f2f2f;}.cls-27{fill:#6d232d;}.cls-28{fill:#9d2e3d;}.cls-29{fill:#531f26;}.cls-30{fill:#61252d;}.cls-31{clip-path:url(#clip-path-2);}.cls-32{fill:#f2e5d3;}.cls-33{fill:#e04e3e;}.cls-34{clip-path:url(#clip-path-3);}.cls-35,.cls-36{stroke:#f1ede4;stroke-miterlimit:10;}.cls-35{stroke-width:0.5px;}.cls-36{stroke-width:0.37px;}</style><clipPath id="clip-path" transform="translate(-259.05 -92.06)"><rect class="cls-1" width="595.82" height="387.57" rx="12.77"/></clipPath><clipPath id="clip-path-2" transform="translate(-259.05 -92.06)"><path class="cls-1" d="M386.24,222.79s3.67,0,6,5c0,0,.67-5.34,10.34-5.34l31.33-5-2-27.66-21.33-3-25.67,15.66-7,17.67Z"/></clipPath><clipPath id="clip-path-3" transform="translate(-259.05 -92.06)"><path class="cls-1" d="M352.75,179.83s-2.16,0-3.54,3c0,0-.39-3.15-6.1-3.15l-18.5-2.95,1.19-16.34,12.59-1.77,15.15,9.25,4.13,10.43Z"/></clipPath></defs><g id="Layer_2" data-name="Layer 2"><g id="OBJECTS"><path class="cls-2" d="M557.49,118.84c-10.4,14.28-15.43,31.64-22.31,47.91-12.51,29.63-33.64,57.93-64.14,68.16-36,12.08-75.43-3.53-113.23.3C319.2,239.12,283.59,265,268,300.59c-12,27.31-11.75,59.46-.45,87H583a12.78,12.78,0,0,0,12.78-12.77V92.06C580.63,96.8,566.87,106,557.49,118.84Z" transform="translate(-259.05 -92.06)"/><g class="cls-3"><path class="cls-4" d="M355.12,429.3v-.06c-.29-1.12-.6-2.26-.93-3.4-.06-.23-.13-.47-.2-.7-.27-.93-.55-1.87-.84-2.81-.09-.27-.17-.53-.25-.79-.74-2.32-1.55-4.65-2.45-7,0-.1-.07-.2-.11-.31v0c-.39-1-.8-2-1.22-3h0c-.11-.27-.23-.53-.35-.8s-.36-.85-.55-1.28l-.3-.66c30.4-10.66,49.6-25.61,49.6-25.61l-13.17-7.76s4.58-1.53,9.76-3.17c-2.63-.43-10.74-4.44-18.35-8.46,6.82-.38,13.35-4.16,17.05-6.86-13.7,8.34-27.19,1.51-32-1.52,10.75.5,14.37-1.39,14.37-1.39s-19.84-9.38-27-13.49c.49-.31,1-.63,1.46-1,2.59,1.47,5.47,1.94,7.47.57-3.47.12-4.31-1.76-4.31-1.76a20.42,20.42,0,0,0,8.58-3.67,19.25,19.25,0,0,1-6.9,1.46c2.56-1.9,5.1-3.95,7.59-6.15l-.56-.09,1.65-.16c-10.31-2.16-16.57-9.07-18.94-10s5.21-.41,7.72-3.51a43.21,43.21,0,0,1-10.81-2.51c5.14.31,10.34-1.24,13.67-4.6a31.77,31.77,0,0,1-21.25-1c2.44-.43,5.43-1.16,6.78-2.31-4.23-.43-9.32-3.44-12.09-5.29,9.39-4.09,10.22-5.91,10.22-5.91-3.2-3.44-9.78-5.34-9.78-5.34a11,11,0,0,0,5-1.48c-9.44-2.53-12.24-6.26-12.24-6.26s3.65,0,5.71-1.79c-3.45-.7-11.2-1.45-17.39-6a11.65,11.65,0,0,0,9.09-1.23,20.85,20.85,0,0,1-13.86-3.66,21.75,21.75,0,0,1-1.92-3.44,27.38,27.38,0,0,0,5.13.51c-3.29-.95-14.54-6.83-20-15.34a81.47,81.47,0,0,1-1.63,10.87,20.48,20.48,0,0,1-13,9.81c4.41,1.26,8.72-.79,11.49-4.06-1.7,5.77-4.05,11.13-7,14.09a37.49,37.49,0,0,0,6.38-.89,20.36,20.36,0,0,1-12.4,8.89c4.21,1.21,8.34-.62,11.12-3.64a64.13,64.13,0,0,1-13.89,22.92c1.08,2.36,5.19-1.15,5.19-1.15s-1.53,5.6-3.25,7.2a12.63,12.63,0,0,0,1.27-.7l-.26.24a71.28,71.28,0,0,0,12.34-.84c-2.3,5.28-10.56,20.24-10.56,20.24s3-.43,9.32-5.45c-.88,2.37-10.11,22-12.8,24.69,3.84-1.26,7.27-2.33,7.27-2.33l-4.57,10.42a84.53,84.53,0,0,0,9,0c-.84,1.86-2.69,4-6.8,5,4.35-.42,7.66-2.05,9.59-5.13l.75-.05.74,2.57.74-2.68,1.85-.16c-1.47,4.79-4.18,11.85-8.08,15.32,4.35.35,13.64-5.18,13.64-5.18s-7.65,16.82-18.12,25.64c5.18,1.41,13.06-5.06,11.18-2.23s-5.77,14-15.29,24.45L273,418l-.24.25a172.19,172.19,0,0,0,62.89-5.89c.24.65.47,1.36.71,2.12.1.3.2.61.3.94.05.17.1.36.15.55l.3,1,.15.58q.15.56.3,1.14l.12.53c.11.44.22.88.32,1.34,0,.06,0,.13,0,.19.39,1.76.77,3.7,1.12,5.83,0,.14.05.26.07.4.08.53.17,1.09.25,1.65,1.44,9.76,2.29,23.24,1.45,41.67a9.64,9.64,0,0,0,2.72.65h.1l.47.05h.12a5.12,5.12,0,0,0,.56,0h.76a19,19,0,0,0,5.07-.8h0a28.28,28.28,0,0,0,8-3.94h0c.43-.29.87-.6,1.32-.94a158,158,0,0,0-4.94-36.1Z" transform="translate(-259.05 -92.06)"/><path class="cls-4" d="M507.09,414.51v-.05c.21-1.06.41-2.13.6-3.22,0-.22.07-.44.11-.66.15-.89.29-1.79.43-2.69,0-.26.07-.51.11-.76.31-2.23.57-4.51.75-6.83l0-.3v0c.08-1,.15-2,.2-3h0c0-.26,0-.53,0-.8,0-.43,0-.86.05-1.29,0-.23,0-.45,0-.68,29.68,3.3,51.72-1.49,51.72-1.49L553.26,381s4.45.56,9.43,1.26c-2-1.41-7.19-8-11.94-14.43,5.86,2.42,12.83,1.88,17,1.11-14.8,1.47-23.33-9.65-26.14-14.12,8.78,4.74,12.57,4.61,12.57,4.61s-12.82-15.8-17.12-22.09l1.61-.22c1.57,2.27,3.79,3.81,6,3.48-3-1.3-2.9-3.21-2.9-3.21a19,19,0,0,0,8.65.38,17.94,17.94,0,0,1-6.35-1.55q4.35-.84,8.81-2.09l-.43-.3c.93.33,1.44.53,1.44.53-7.74-5.95-10.21-14.24-11.83-15.93s4.52,1.75,7.86.16a40.21,40.21,0,0,1-8-6.43c4.18,2.32,9.14,3.11,13.28,1.64a29.46,29.46,0,0,1-17.37-9.35c2.21.62,5,1.21,6.59.79-3.36-2.05-6.4-6.62-8-9.28,9.49.36,10.92-.83,10.92-.83-1.3-4.16-6-8.39-6-8.39a10.24,10.24,0,0,0,4.81.78c-6.88-5.9-7.72-10.14-7.72-10.14s3.07,1.44,5.5.8c-2.61-2-8.78-5.71-12.13-12a10.8,10.8,0,0,0,8.09,2.62,19.36,19.36,0,0,1-10.12-8.62,19.63,19.63,0,0,1-.22-3.65A25.85,25.85,0,0,0,533.6,259c-2.37-2.11-9.41-11.55-10.6-20.87a76.06,76.06,0,0,1-5.72,8.43,19,19,0,0,1-14.77,3c3.17,2.82,7.6,2.84,11.23,1.21-3.74,4.15-7.85,7.68-11.49,9a34.83,34.83,0,0,0,5.69,1.81A18.87,18.87,0,0,1,494,264c3,2.7,7.22,2.83,10.75,1.42A59.48,59.48,0,0,1,484,279c-.05,2.41,4.8,1.13,4.8,1.13s-3.52,4.06-5.6,4.71a12.1,12.1,0,0,0,1.34-.08l-.31.1a65.65,65.65,0,0,0,10.65,4.25c-4.05,3.49-16.95,12.68-16.95,12.68s2.7.85,10-.81c-1.68,1.62-17.28,14.32-20.61,15.49,3.71.49,7,1,7,1l-8,6.87a77,77,0,0,0,7.51,3.64c-1.45,1.22-3.86,2.28-7.68,1.45,3.8,1.39,7.22,1.36,10.07-.45l.64.26-.4,2.45,1.69-1.95c.52.21,1.06.41,1.61.61-3.16,3.42-8.25,8.24-12.91,9.56,3.5,2,13.48,1.16,13.48,1.16s-13.14,11-25.43,14.15c3.76,3.26,12.94,1,10.24,2.62s-10.44,9.38-22.6,14.3l.51,0-.3.1a159.35,159.35,0,0,0,54.93,20.33c-.06.64-.15,1.33-.25,2.06-.05.29-.09.59-.14.9s-.06.35-.09.52c-.05.32-.1.64-.16,1,0,.17-.07.36-.11.54q-.09.52-.21,1.08c0,.16-.07.33-.1.49-.09.41-.18.82-.28,1.25l0,.17c-.38,1.63-.84,3.4-1.4,5.32,0,.12-.07.24-.11.37-.14.47-.3,1-.45,1.47-2.72,8.73-7.42,20.35-15.52,35.41a9.49,9.49,0,0,0,2,1.64l.08.05.37.22.1.06.46.25.05,0c.18.1.38.19.58.29h0A17.45,17.45,0,0,0,487,447h0a26.16,26.16,0,0,0,8.28-.07h0c.48-.07,1-.15,1.48-.25a146.56,146.56,0,0,0,10.36-32.16Z" transform="translate(-259.05 -92.06)"/><path class="cls-4" d="M567,437.53v0c.18-.93.36-1.88.52-2.84,0-.19.07-.39.1-.59.13-.78.26-1.57.37-2.37,0-.23.07-.45.1-.67.28-2,.51-4,.67-6l0-.26h0c.07-.88.12-1.76.17-2.66h0c0-.24,0-.47,0-.71s0-.76,0-1.14c0-.2,0-.4,0-.6,26.21,2.91,45.67-1.32,45.67-1.32l-7-10.39s3.92.5,8.33,1.12c-1.79-1.25-6.36-7.08-10.54-12.75,5.17,2.14,11.32,1.66,15,1-13.07,1.29-20.6-8.53-23.08-12.47,7.76,4.18,11.1,4.06,11.1,4.06s-11.32-13.95-15.12-19.5l1.43-.19c1.38,2,3.34,3.36,5.31,3.07-2.61-1.14-2.57-2.83-2.57-2.83a16.81,16.81,0,0,0,7.64.33,15.72,15.72,0,0,1-5.61-1.37c2.56-.5,5.16-1.11,7.78-1.84l-.38-.27,1.27.47c-6.84-5.25-9-12.57-10.44-14.06s4,1.54,6.94.14a35.1,35.1,0,0,1-7.09-5.68c3.69,2.05,8.07,2.74,11.72,1.45a26,26,0,0,1-15.34-8.26c2,.55,4.43,1.07,5.83.7-3-1.81-5.66-5.84-7.05-8.19,8.38.31,9.64-.74,9.64-.74-1.15-3.67-5.33-7.4-5.33-7.4a9.09,9.09,0,0,0,4.24.69c-6.07-5.21-6.81-9-6.81-9s2.71,1.27,4.85.71c-2.3-1.74-7.75-5-10.71-10.59a9.53,9.53,0,0,0,7.14,2.31,17,17,0,0,1-8.92-7.6,16.16,16.16,0,0,1-.2-3.23,22.6,22.6,0,0,0,3.6,2.2c-2.09-1.86-8.31-10.2-9.36-18.43a65.14,65.14,0,0,1-5,7.44,16.74,16.74,0,0,1-13,2.65c2.8,2.5,6.71,2.51,9.92,1.08-3.3,3.66-6.94,6.77-10.15,7.93a31.06,31.06,0,0,0,5,1.59,16.65,16.65,0,0,1-12.3,2.17,9.06,9.06,0,0,0,9.5,1.26,52.34,52.34,0,0,1-18.38,12c0,2.13,4.24,1,4.24,1s-3.11,3.59-5,4.16a11.07,11.07,0,0,0,1.19-.06l-.28.08a58.06,58.06,0,0,0,9.41,3.75c-3.58,3.09-15,11.2-15,11.2s2.38.75,8.81-.72c-1.49,1.43-15.26,12.64-18.2,13.68,3.28.43,6.19.86,6.19.86L531,357.92a70,70,0,0,0,6.63,3.22c-1.28,1.07-3.42,2-6.79,1.27,3.36,1.23,6.38,1.2,8.89-.39l.58.23-.36,2.16,1.49-1.72,1.42.54c-2.78,3-7.28,7.27-11.39,8.44,3.08,1.8,11.9,1,11.9,1s-11.61,9.7-22.46,12.5c3.32,2.87,11.43.89,9,2.31s-9.21,8.28-19.95,12.63l.45,0-.27.09a140.85,140.85,0,0,0,48.5,17.95c0,.56-.13,1.17-.22,1.81,0,.26-.07.52-.12.8s0,.31-.08.46-.09.57-.14.86-.07.32-.1.48-.11.62-.18.95l-.1.44c-.07.36-.15.72-.24,1.1l0,.15c-.34,1.44-.75,3-1.24,4.7,0,.11-.06.21-.1.32-.12.42-.26.87-.4,1.3-2.39,7.71-6.55,18-13.7,31.27a8.06,8.06,0,0,0,1.79,1.44l.06,0,.34.2.08,0,.4.21.05,0,.51.25h0a16,16,0,0,0,4,1.21h0a23.33,23.33,0,0,0,7.31-.07h0c.43-.06.86-.14,1.31-.22a129.44,129.44,0,0,0,9.15-28.4Z" transform="translate(-259.05 -92.06)"/><path class="cls-5" d="M335,280.16c17.1,11.55,39.28,9,57.47,1.6,20.77-8.42,38.68-22.58,59.69-30.48a85.06,85.06,0,0,1,33.15-5.49,120.47,120.47,0,0,1,33.45,6.42c20.75,6.84,40.09,19.65,62.36,21.06,9.92.62,20.19-1.18,28.54-6.81a44.61,44.61,0,0,0,16.26-21,49.21,49.21,0,0,0,2-6.59c.15-.62-.81-.89-1-.26a46.34,46.34,0,0,1-13.77,23.82c-7.68,6.86-17.72,9.88-27.89,10-22.26.16-41.68-12.33-62-19.65s-42.55-10.91-63.67-5S420.89,267,401.51,276.58c-18.21,9-40.4,15.12-59.89,6.17a42.91,42.91,0,0,1-6.12-3.46c-.53-.36-1,.51-.5.87Z" transform="translate(-259.05 -92.06)"/><path class="cls-6" d="M341.91,276.45a13.64,13.64,0,0,1-11.5,2c2.67,4,8,4.17,12.17,2.84S341.91,276.45,341.91,276.45Z" transform="translate(-259.05 -92.06)"/><path class="cls-7" d="M356,286.85a3.34,3.34,0,1,1-3.33-3.34A3.33,3.33,0,0,1,356,286.85Z" transform="translate(-259.05 -92.06)"/><path class="cls-5" d="M354.58,285.79a1.09,1.09,0,1,1-1.09-1.09A1.09,1.09,0,0,1,354.58,285.79Z" transform="translate(-259.05 -92.06)"/><path class="cls-7" d="M375.45,286.35a3.34,3.34,0,1,1-3.33-3.34A3.33,3.33,0,0,1,375.45,286.35Z" transform="translate(-259.05 -92.06)"/><path class="cls-5" d="M374.08,285.29A1.09,1.09,0,1,1,373,284.2,1.09,1.09,0,0,1,374.08,285.29Z" transform="translate(-259.05 -92.06)"/><path class="cls-7" d="M394.12,281.68a3.34,3.34,0,1,1-3.34-3.33A3.33,3.33,0,0,1,394.12,281.68Z" transform="translate(-259.05 -92.06)"/><path class="cls-5" d="M392.74,280.62a1.08,1.08,0,1,1-1.08-1.08A1.08,1.08,0,0,1,392.74,280.62Z" transform="translate(-259.05 -92.06)"/><path class="cls-7" d="M412.28,273.18a3.33,3.33,0,1,1-3.33-3.33A3.33,3.33,0,0,1,412.28,273.18Z" transform="translate(-259.05 -92.06)"/><path class="cls-5" d="M410.91,272.12a1.09,1.09,0,1,1-1.08-1.08A1.08,1.08,0,0,1,410.91,272.12Z" transform="translate(-259.05 -92.06)"/><path class="cls-7" d="M428.41,264.29a3.34,3.34,0,1,1-3.33-3.34A3.33,3.33,0,0,1,428.41,264.29Z" transform="translate(-259.05 -92.06)"/><path class="cls-5" d="M427,263.22a1.08,1.08,0,1,1-1.08-1.08A1.08,1.08,0,0,1,427,263.22Z" transform="translate(-259.05 -92.06)"/><circle class="cls-7" cx="182.86" cy="162.73" r="3.33"/><path class="cls-5" d="M443.87,253.72a1.09,1.09,0,1,1-1.09-1.08A1.09,1.09,0,0,1,443.87,253.72Z" transform="translate(-259.05 -92.06)"/><path class="cls-7" d="M462.08,249.62a3.34,3.34,0,1,1-3.34-3.33A3.34,3.34,0,0,1,462.08,249.62Z" transform="translate(-259.05 -92.06)"/><path class="cls-5" d="M460.7,248.56a1.09,1.09,0,1,1-1.08-1.09A1.08,1.08,0,0,1,460.7,248.56Z" transform="translate(-259.05 -92.06)"/><path class="cls-7" d="M480.91,246.12a3.34,3.34,0,1,1-3.33-3.33A3.33,3.33,0,0,1,480.91,246.12Z" transform="translate(-259.05 -92.06)"/><path class="cls-5" d="M479.53,245.06a1.08,1.08,0,1,1-1.08-1.09A1.08,1.08,0,0,1,479.53,245.06Z" transform="translate(-259.05 -92.06)"/><path class="cls-7" d="M502.08,247.45a3.34,3.34,0,1,1-3.34-3.33A3.35,3.35,0,0,1,502.08,247.45Z" transform="translate(-259.05 -92.06)"/><path class="cls-5" d="M500.7,246.39a1.09,1.09,0,1,1-1.08-1.08A1.08,1.08,0,0,1,500.7,246.39Z" transform="translate(-259.05 -92.06)"/><circle class="cls-7" cx="260.86" cy="160.23" r="3.33"/><path class="cls-5" d="M521.87,251.22a1.09,1.09,0,1,1-1.09-1.08A1.09,1.09,0,0,1,521.87,251.22Z" transform="translate(-259.05 -92.06)"/><path class="cls-7" d="M543.41,260.29a3.34,3.34,0,1,1-3.33-3.34A3.33,3.33,0,0,1,543.41,260.29Z" transform="translate(-259.05 -92.06)"/><path class="cls-5" d="M542,259.22a1.08,1.08,0,1,1-1.08-1.08A1.08,1.08,0,0,1,542,259.22Z" transform="translate(-259.05 -92.06)"/><path class="cls-7" d="M563.58,268.12a3.34,3.34,0,1,1-3.34-3.33A3.34,3.34,0,0,1,563.58,268.12Z" transform="translate(-259.05 -92.06)"/><path class="cls-5" d="M562.2,267.06a1.09,1.09,0,1,1-1.08-1.09A1.08,1.08,0,0,1,562.2,267.06Z" transform="translate(-259.05 -92.06)"/><path class="cls-7" d="M588.58,273.29a3.34,3.34,0,1,1-3.34-3.34A3.34,3.34,0,0,1,588.58,273.29Z" transform="translate(-259.05 -92.06)"/><path class="cls-5" d="M587.2,272.22a1.09,1.09,0,1,1-1.08-1.08A1.08,1.08,0,0,1,587.2,272.22Z" transform="translate(-259.05 -92.06)"/><polygon class="cls-8" points="260.92 219.92 224 231.9 255.34 254.79 292.26 242.82 260.92 219.92"/><polygon class="cls-8" points="255.34 254.79 292.26 242.82 287.73 271.08 250.82 283.06 255.34 254.79"/><polygon class="cls-9" points="224 231.9 255.34 254.79 250.82 283.06 219.48 260.17 224 231.9"/><polygon class="cls-10" points="260.92 219.92 224 231.9 255.34 254.79 292.26 242.82 260.92 219.92"/><polygon class="cls-10" points="255.34 254.79 292.26 242.82 292 244.43 255.08 256.41 255.34 254.79"/><polygon class="cls-10" points="224 231.9 255.34 254.79 255.08 256.41 223.74 233.51 224 231.9"/><polygon class="cls-8" points="262.64 209.18 223.18 221.98 256.67 246.46 296.13 233.66 262.64 209.18"/><polygon class="cls-9" points="256.67 246.46 296.13 233.66 294.69 242.65 255.23 255.45 256.67 246.46"/><polygon class="cls-9" points="223.18 221.98 256.67 246.46 255.23 255.45 221.74 230.98 223.18 221.98"/><polygon class="cls-11" points="279.87 238.86 274.01 275.47 266.87 277.85 272.73 241.25 279.87 238.86"/><polygon class="cls-11" points="236.9 231.99 231.05 268.59 237.08 273.09 242.94 236.48 236.9 231.99"/><polygon class="cls-12" points="236.9 231.99 276.28 219.07 282.31 223.56 242.94 236.48 236.9 231.99"/><polygon class="cls-12" points="279.87 238.95 246.59 214.26 239.45 216.61 272.73 241.31 279.87 238.95"/><path class="cls-12" d="M519.21,316.72s-2-11.18-9.55-18.35l-.8,5-6.53-1.59S513,310,512.92,318.7Z" transform="translate(-259.05 -92.06)"/><path class="cls-12" d="M517.62,316.47s5.4-10,14.79-14.46l-.8,5,6.7.53s-12.66,4.48-15.33,12.74Z" transform="translate(-259.05 -92.06)"/><polygon class="cls-13" points="233.08 267.17 245.47 249.02 245.74 255.69 253.02 253.73 239.5 269.87 233.08 267.17"/><polygon class="cls-14" points="228.14 266.26 223.74 254.31 229.65 258.12 235.32 248.64 234.13 267.97 228.14 266.26"/><polygon class="cls-15" points="280.38 310.54 189.66 293.7 191.85 259.22 289.44 277.93 280.38 310.54"/><g class="cls-16"><polygon class="cls-17" points="201.72 295.94 203.58 296.29 190.43 281.52 190.33 283.14 201.72 295.94"/><polygon class="cls-17" points="244.99 269.41 243.12 269.05 279.99 310.47 280.38 310.54 280.67 309.49 244.99 269.41"/><polygon class="cls-17" points="191.3 267.81 191.2 269.44 217.38 298.85 219.24 299.19 191.3 267.81"/><polygon class="cls-17" points="229.23 266.39 227.36 266.03 264.34 307.56 266.19 307.91 229.23 266.39"/><polygon class="cls-17" points="213.48 263.37 211.6 263.01 248.68 304.66 250.54 305 213.48 263.37"/><polygon class="cls-17" points="197.72 260.35 195.85 259.99 233.03 301.75 234.89 302.1 197.72 260.35"/></g><path class="cls-18" d="M523.3,399.6l16.13,3L548.48,370l-21.34-4.09C526.12,373.39,523.73,391.36,523.3,399.6Z" transform="translate(-259.05 -92.06)"/><polygon class="cls-13" points="223.25 265.05 223.39 299.96 231.04 301.68 237.89 267.16 223.25 265.05"/><polygon class="cls-13" points="189.51 275.03 266.6 287.53 286.37 291.2 283.37 300.87 263.93 295.45 189.96 282.33 189.51 275.03"/><polygon class="cls-14" points="266.18 287.46 265.49 295.89 283.37 300.87 286.37 291.2 266.6 287.53 266.18 287.46"/><polygon class="cls-8" points="312.78 246.75 285.1 270.89 320.88 279.17 348.56 255.03 312.78 246.75"/><polygon class="cls-19" points="320.88 279.17 348.56 255.03 355.13 281.32 327.45 305.46 320.88 279.17"/><polygon class="cls-20" points="285.1 270.89 320.88 279.17 327.45 305.46 291.67 297.17 285.1 270.89"/><polygon class="cls-10" points="312.78 246.75 285.1 270.89 320.88 279.17 348.56 255.03 312.78 246.75"/><polygon class="cls-20" points="320.88 279.17 348.56 255.03 348.94 256.54 321.26 280.67 320.88 279.17"/><polygon class="cls-21" points="285.1 270.89 320.88 279.17 321.26 280.67 285.48 272.39 285.1 270.89"/><polygon class="cls-22" points="310.29 236.77 280.7 262.57 318.94 271.42 348.53 245.62 310.29 236.77"/><polygon class="cls-19" points="318.94 271.42 348.53 245.62 350.62 253.98 321.04 279.78 318.94 271.42"/><polygon class="cls-20" points="280.7 262.57 318.94 271.42 321.04 279.78 282.79 270.93 280.7 262.57"/><polygon class="cls-10" points="336.31 256.19 344.81 290.23 339.49 294.96 330.98 260.92 336.31 256.19"/><polygon class="cls-10" points="296.36 266.18 304.87 300.21 311.79 301.88 303.29 267.84 296.36 266.18"/><polygon class="cls-23" points="296.36 266.18 325.83 240.3 332.75 241.97 303.29 267.84 296.36 266.18"/><polygon class="cls-23" points="336.35 256.27 298.21 247.14 292.87 251.85 331 260.98 336.35 256.27"/><path class="cls-23" d="M572.93,343.22s-5.9-9-15.12-12.43l1.16,4.67-6.27,1.05s12.3,3.2,15.5,10.76Z" transform="translate(-259.05 -92.06)"/><path class="cls-23" d="M571.45,343.58s1-10.7,7.51-18.07l1.17,4.67,6-2s-9.34,8.61-8.61,16.79Z" transform="translate(-259.05 -92.06)"/><path class="cls-24" d="M330.19,370.92c.58,1.69-1.5,3.94-4.63,5s-6.15.56-6.73-1.13,1.49-3.95,4.63-5S329.6,369.22,330.19,370.92Z" transform="translate(-259.05 -92.06)"/><path class="cls-24" d="M330.26,375.78c.56,1.63-2.59,4.19-7,5.7s-8.5,1.43-9.06-.21,2.59-4.18,7-5.7S329.7,374.14,330.26,375.78Z" transform="translate(-259.05 -92.06)"/><path class="cls-24" d="M402.08,238.27c.52,1.53-1.34,3.55-4.17,4.52s-5.54.5-6.07-1,1.35-3.55,4.18-4.52S401.56,236.73,402.08,238.27Z" transform="translate(-259.05 -92.06)"/><path class="cls-24" d="M402.15,242.65c.5,1.47-2.34,3.77-6.34,5.14s-7.66,1.28-8.16-.19,2.33-3.77,6.34-5.14S401.65,241.18,402.15,242.65Z" transform="translate(-259.05 -92.06)"/><path class="cls-24" d="M554.19,352.42c.58,1.69-1.5,3.94-4.63,5s-6.15.56-6.73-1.13,1.49-3.95,4.63-5S553.6,350.72,554.19,352.42Z" transform="translate(-259.05 -92.06)"/><path class="cls-24" d="M554.26,357.28c.56,1.63-2.59,4.19-7,5.7s-8.5,1.43-9.06-.21,2.59-4.18,7-5.7S553.7,355.64,554.26,357.28Z" transform="translate(-259.05 -92.06)"/><path class="cls-24" d="M463.19,263.92c.58,1.69-1.5,3.94-4.63,5s-6.15.56-6.73-1.13,1.49-3.95,4.63-5S462.6,262.22,463.19,263.92Z" transform="translate(-259.05 -92.06)"/><path class="cls-24" d="M463.26,268.78c.56,1.63-2.59,4.19-7,5.7s-8.5,1.43-9.06-.21,2.59-4.18,7-5.7S462.7,267.14,463.26,268.78Z" transform="translate(-259.05 -92.06)"/><path class="cls-24" d="M304.24,296.12a3.33,3.33,0,1,1-3.33-3.33A3.33,3.33,0,0,1,304.24,296.12Z" transform="translate(-259.05 -92.06)"/><path class="cls-24" d="M554.24,290.12a3.33,3.33,0,1,1-3.33-3.33A3.33,3.33,0,0,1,554.24,290.12Z" transform="translate(-259.05 -92.06)"/><circle class="cls-24" cx="118.36" cy="262.23" r="3"/><circle class="cls-24" cx="199.86" cy="230.73" r="3.33"/><circle class="cls-24" cx="205.36" cy="235.23" r="6"/><path class="cls-25" d="M316.63,273.77s74.68,13.31,140.38-34C422.45,229.89,360.15,233.69,316.63,273.77Z" transform="translate(-259.05 -92.06)"/><path class="cls-25" d="M322.1,202.2s22.94,3.59,62-5.58,42.09-14.43,42.09-14.43-24.31-16.38-52-7.49S322.1,202.2,322.1,202.2Z" transform="translate(-259.05 -92.06)"/><path class="cls-6" d="M346,152.39s-5.42,21.15-27.62,40.82c1.3,3.78,8.11-1,8.11-1s-3.17,8.32-6,10.51c9.17-3.14,50.39-33.93,105.71-20.56-4.38-5.73-14.15-9.62-14.15-9.62a16.89,16.89,0,0,0,7.92-1.51c-14-5.27-17.77-11.39-17.77-11.39s5.6.49,9-1.88c-7.41-2.28-28.28-6-34.67-25.5a43,43,0,0,0,7.77,1.56c-4.88-1.95-21.21-12.63-28.36-26.46-2.41,14.09-10.15,37.24-20,45.44A59.14,59.14,0,0,0,346,152.39Z" transform="translate(-259.05 -92.06)"/><path class="cls-6" d="M406.76,187.18s11.29,10.55,20.62,12.42c-4.09,2.85-16.45,2.74-16.45,2.74s17.23,12.2,32.63,14.89c-4.29,4.37-15.79,2.52-12.31,4.22s12,13.2,27.45,18.06c0,0-92.1-1.69-142.07,34.26l8.54-15.24s-5.41,1.13-11.46,2.48c4.52-3.72,21.56-32.34,23.27-35.82-10.38,6.73-15.07,6.94-15.07,6.94s16.91-24.63,19.89-30.72C341.8,201.41,364,184.37,406.76,187.18Z" transform="translate(-259.05 -92.06)"/><path class="cls-26" d="M503.17,326.28s-89.21,56.44-196,35.38C343.87,330.3,427.54,301.7,503.17,326.28Z" transform="translate(-259.05 -92.06)"/><path class="cls-6" d="M343.71,268.19s-7,22-17.41,29.51c6.6,1.19,21.63-5.86,21.63-5.86s-14.2,24.56-31.52,36.47c7.7,2.93,20.71-5.78,17.41-1.74s-10.9,20.53-27,35.1c0,0,115.19-51.33,196.38-35.39l-19-13.83s7.24-1.65,15.39-3.4c-7.6-2-44.47-27.43-48.5-30.73,16.45,2.41,22.29,0,22.29,0S438.93,257.74,431.87,252C431.87,252,404.93,241.71,343.71,268.19Z" transform="translate(-259.05 -92.06)"/><path class="cls-6" d="M393.58,331.12s-6,8.33-3.67,14.67c0,0,4-11.34,13.33-16,0,0-1.33,6,2,9.33,0,0,5.34-8.67,8.34-13s-13.34-2.67-13.34-2.67Z" transform="translate(-259.05 -92.06)"/><path class="cls-6" d="M373.15,248.18s3.36,3.7,12,4.06L381,249.68a38.47,38.47,0,0,0,9.9.11c-3.44-.65-8.28-4.63-8.28-4.63Z" transform="translate(-259.05 -92.06)"/><path class="cls-6" d="M421.58,322.45s15.33,19,35.33,12.34c0,0-29.67-4.67-32.67-17.67Z" transform="translate(-259.05 -92.06)"/><path class="cls-25" d="M439.24,247.12a29.32,29.32,0,0,0,16-.33,31.55,31.55,0,0,1-13.66,4.33s1,3,6.33,3.33c-3.67,2-8.67.34-12.67-3S439.24,247.12,439.24,247.12Z" transform="translate(-259.05 -92.06)"/><path class="cls-25" d="M331.91,270.45s-.33,9.67-12.67,11.34c7.34,0,13-2.34,16.34-7.67l1,5.33,2.66-7Z" transform="translate(-259.05 -92.06)"/><path class="cls-6" d="M375.41,179s10.33,7.84,22.17,6c0,0-6.67-.5-10.5-3.83a30.67,30.67,0,0,0,9.33-.17,11.88,11.88,0,0,1-7.67-3.66C385.58,173.79,375.41,179,375.41,179Z" transform="translate(-259.05 -92.06)"/><path class="cls-6" d="M448.58,276.12s23.66,22.67,51.33,9.33C488.58,292.12,461.58,303.12,448.58,276.12Z" transform="translate(-259.05 -92.06)"/><path class="cls-6" d="M449,206.8s-24.27,6.24-43.76-13.19C410.26,212.18,436.26,217.33,449,206.8Z" transform="translate(-259.05 -92.06)"/><path class="cls-6" d="M349.59,146.34a31.76,31.76,0,0,1-24,17.82C337.25,168.79,350.13,157.15,349.59,146.34Z" transform="translate(-259.05 -92.06)"/><path class="cls-6" d="M354.59,119a31.74,31.74,0,0,1-24,17.81C342.25,141.46,355.13,129.82,354.59,119Z" transform="translate(-259.05 -92.06)"/><path class="cls-2" d="M411.15,213.75A31.74,31.74,0,0,1,385.7,198C385.73,210.59,401.3,218.25,411.15,213.75Z" transform="translate(-259.05 -92.06)"/><path class="cls-2" d="M389,161.32a15.78,15.78,0,0,1-12.63-7.82C376.41,159.75,384.13,163.55,389,161.32Z" transform="translate(-259.05 -92.06)"/><path class="cls-2" d="M402.76,280.87a23.76,23.76,0,0,1-19.05-11.79C383.73,278.5,395.39,284.23,402.76,280.87Z" transform="translate(-259.05 -92.06)"/><path class="cls-2" d="M361.49,239.5a31.72,31.72,0,0,1-12.65,27.13C361.35,265.12,367.12,248.75,361.49,239.5Z" transform="translate(-259.05 -92.06)"/><path class="cls-2" d="M352.41,211.71a15,15,0,0,1-6,12.8C352.34,223.79,355.06,216.07,352.41,211.71Z" transform="translate(-259.05 -92.06)"/><path class="cls-6" d="M392,139.24A21.74,21.74,0,0,1,374,129.52C374.51,138.14,385.48,142.73,392,139.24Z" transform="translate(-259.05 -92.06)"/><path class="cls-2" d="M411.41,264.29s8.5,14,24,14.5c0,0-8.5-3.5-12-9,0,0,10,5,19.5,4,0,0-22-9.5-29.5-20.5,0,0,1,10.25,7,15.25Z" transform="translate(-259.05 -92.06)"/><path class="cls-2" d="M357.6,160.78s5.59,11.64,17.71,13.23c0,0-6.4-3.4-8.72-8,0,0,7.46,4.7,15,4.65,0,0-16.52-9.16-21.55-18.37,0,0,0,8.12,4.31,12.51Z" transform="translate(-259.05 -92.06)"/><path class="cls-2" d="M374,322.89s6.4-6.69,4.4-15.22c0,0-.66,5.15-3.15,7.86,0,0,1.26-6.19-.67-11.23,0,0-2,13.4-6.88,19.11,0,0,5.45-2.05,7.3-6.05Z" transform="translate(-259.05 -92.06)"/><path class="cls-2" d="M427.58,284.79s5,4,14.33,4.33C437.58,292.79,428.91,290.79,427.58,284.79Z" transform="translate(-259.05 -92.06)"/><path class="cls-2" d="M349.47,334.54s5.12-3.84,7.76-12.8C359.71,326.85,355.61,334.75,349.47,334.54Z" transform="translate(-259.05 -92.06)"/><path class="cls-27" d="M400.16,351.29s14.75,21.5,3.42,100.16c0,0,11.33,6.67,30-4.66,0,0,5.58-53.59-14.42-100.25C419.16,346.54,413.49,341.7,400.16,351.29Z" transform="translate(-259.05 -92.06)"/><path class="cls-28" d="M407.28,356.79s4.38,13.25,3.25,20.75C410.53,377.54,407,365.41,407.28,356.79Z" transform="translate(-259.05 -92.06)"/><polygon class="cls-28" points="158.69 274.39 164.19 294.06 164.86 294.06 160.03 272.39 158.69 274.39"/><path class="cls-28" d="M426.35,367.13c-.22,4.75.41,17.33,5.08,23.73A206.14,206.14,0,0,0,426.35,367.13Z" transform="translate(-259.05 -92.06)"/><path class="cls-29" d="M419.16,346.54a7.38,7.38,0,0,0-4.67-1.22,386.29,386.29,0,0,1,14.57,64.9c-1.93-22.67-4.95-45.8-9.69-63.19Z" transform="translate(-259.05 -92.06)"/><path class="cls-30" d="M431.42,448l.61-.34a335.43,335.43,0,0,0-3-37.47C430.17,423.39,430.92,436.4,431.42,448Z" transform="translate(-259.05 -92.06)"/><path class="cls-29" d="M404.82,364.77a140.73,140.73,0,0,1,2.84,24c4.9,25.39,2.26,48.86-.78,63.93a22.31,22.31,0,0,0,3.82.63C418.29,416,408.62,377.61,404.82,364.77Z" transform="translate(-259.05 -92.06)"/><path class="cls-29" d="M423.64,451.5c2.72-28,.73-64.43-15.28-104.85a30.78,30.78,0,0,0-3.16,1.47c4.47,15.42,16.48,61.7,13.37,104.73A37.75,37.75,0,0,0,423.64,451.5Z" transform="translate(-259.05 -92.06)"/><path class="cls-29" d="M419.16,346.54s-5.67-4.84-19,4.75a23.74,23.74,0,0,1,2.15,4.64A47.73,47.73,0,0,0,425,362.37,159.43,159.43,0,0,0,419.16,346.54Z" transform="translate(-259.05 -92.06)"/></g><path class="cls-5" d="M333.26,307.46a49.16,49.16,0,0,1-14.85,8.19c-4.66,1.61-9.74,2.84-13.59,6.08-3.18,2.68-5.6,7-4.69,11.25,1,4.55,5.57,7.37,9.69,8.71,10.26,3.34,20.87-1,29.51-6.45,4.89-3.08,9.57-6.48,14.32-9.76l15-10.36c4.72-3.26,9.39-6.68,14.59-9.14A50.9,50.9,0,0,1,399,301.6c11.2-1.31,22.46.36,33.43,2.57,11.42,2.3,22.79,5.17,34.46,5.84,10,.57,21.22-.6,28.71-8a20.29,20.29,0,0,0,6-11.39c.63-4.53-.64-9.38-4.37-12.26s-8.29-3.4-12.63-3.93q-9-1.11-18.11-1.91-4.53-.41-9.07-.72c-.64-.05-.64.95,0,1q8.79.63,17.54,1.53,4.43.46,8.85,1a53.08,53.08,0,0,1,7,1.17,15.71,15.71,0,0,1,6.07,2.82,10.79,10.79,0,0,1,3.62,6.17,16.75,16.75,0,0,1-3.13,12.95c-6,8.46-16.69,10.8-26.49,10.74-11.31-.07-22.43-2.64-33.44-5-10.44-2.2-21-4.23-31.73-4a62.37,62.37,0,0,0-15,2,52.08,52.08,0,0,0-14.12,6.37c-4.77,3-9.34,6.33-14,9.54l-14.3,9.9c-8.63,6-17.71,12.83-28.53,13.73a22.24,22.24,0,0,1-14.21-3.17,9.87,9.87,0,0,1-4.37-5.56,9.14,9.14,0,0,1,1-6.52c2.41-4.46,7-6.64,11.6-8.23,4.8-1.66,9.53-3.18,13.94-5.76a50,50,0,0,0,6.22-4.32c.5-.4-.21-1.1-.71-.7Z" transform="translate(-259.05 -92.06)"/><path class="cls-6" d="M352.91,285.29s-12,22-39.5,23C330.41,317.29,351.91,301.79,352.91,285.29Z" transform="translate(-259.05 -92.06)"/><path class="cls-6" d="M485.53,264.85a42.79,42.79,0,0,1-40.32,1.78C454.81,280.64,478,277.34,485.53,264.85Z" transform="translate(-259.05 -92.06)"/><path class="cls-13" d="M310.91,320.45a3.34,3.34,0,1,1-3.33-3.33A3.34,3.34,0,0,1,310.91,320.45Z" transform="translate(-259.05 -92.06)"/><path class="cls-5" d="M309.53,319.39a1.08,1.08,0,1,1-1.08-1.08A1.08,1.08,0,0,1,309.53,319.39Z" transform="translate(-259.05 -92.06)"/><path class="cls-13" d="M371.62,313a3.34,3.34,0,1,1-3.34-3.33A3.33,3.33,0,0,1,371.62,313Z" transform="translate(-259.05 -92.06)"/><path class="cls-5" d="M370.24,312a1.08,1.08,0,1,1-1.08-1.08A1.08,1.08,0,0,1,370.24,312Z" transform="translate(-259.05 -92.06)"/><path class="cls-13" d="M484,308.6a3.34,3.34,0,1,1-3.33-3.34A3.33,3.33,0,0,1,484,308.6Z" transform="translate(-259.05 -92.06)"/><path class="cls-5" d="M482.58,307.54a1.09,1.09,0,1,1-1.09-1.09A1.09,1.09,0,0,1,482.58,307.54Z" transform="translate(-259.05 -92.06)"/><path class="cls-13" d="M431.2,302.6a3.34,3.34,0,1,1-3.33-3.34A3.33,3.33,0,0,1,431.2,302.6Z" transform="translate(-259.05 -92.06)"/><path class="cls-5" d="M429.83,301.54a1.09,1.09,0,1,1-1.09-1.09A1.09,1.09,0,0,1,429.83,301.54Z" transform="translate(-259.05 -92.06)"/><path class="cls-13" d="M311.91,340.45a2.67,2.67,0,1,1-2.67-2.66A2.66,2.66,0,0,1,311.91,340.45Z" transform="translate(-259.05 -92.06)"/><path class="cls-5" d="M310.81,339.6a.87.87,0,1,1-1.73,0,.87.87,0,0,1,1.73,0Z" transform="translate(-259.05 -92.06)"/><path class="cls-13" d="M303.24,330.87a2.33,2.33,0,1,1-2.33-2.33A2.33,2.33,0,0,1,303.24,330.87Z" transform="translate(-259.05 -92.06)"/><path class="cls-5" d="M302.28,330.13a.76.76,0,1,1-.76-.76A.76.76,0,0,1,302.28,330.13Z" transform="translate(-259.05 -92.06)"/><path class="cls-13" d="M324.74,341.2a2.33,2.33,0,1,1-2.33-2.33A2.33,2.33,0,0,1,324.74,341.2Z" transform="translate(-259.05 -92.06)"/><circle class="cls-5" cx="63.97" cy="248.4" r="0.76"/><circle class="cls-13" cx="86.86" cy="237.98" r="1.5"/><circle class="cls-5" cx="87.25" cy="237.5" r="0.49"/><circle class="cls-13" cx="76.75" cy="244.64" r="2.33"/><path class="cls-5" d="M337.17,336a.76.76,0,1,1-.76-.76A.76.76,0,0,1,337.17,336Z" transform="translate(-259.05 -92.06)"/><path class="cls-13" d="M398.64,302a2.34,2.34,0,1,1-2.33-2.33A2.33,2.33,0,0,1,398.64,302Z" transform="translate(-259.05 -92.06)"/><path class="cls-5" d="M397.68,301.29a.76.76,0,1,1-.76-.76A.76.76,0,0,1,397.68,301.29Z" transform="translate(-259.05 -92.06)"/><path class="cls-13" d="M358.8,322.36a2.34,2.34,0,1,1-2.34-2.33A2.34,2.34,0,0,1,358.8,322.36Z" transform="translate(-259.05 -92.06)"/><path class="cls-5" d="M357.83,321.62a.76.76,0,1,1-.75-.76A.76.76,0,0,1,357.83,321.62Z" transform="translate(-259.05 -92.06)"/><circle class="cls-13" cx="152" cy="208.48" r="2.33"/><path class="cls-5" d="M412.42,299.79a.76.76,0,1,1-.76-.75A.76.76,0,0,1,412.42,299.79Z" transform="translate(-259.05 -92.06)"/><path class="cls-13" d="M448.39,305.78a2.34,2.34,0,1,1-2.33-2.33A2.33,2.33,0,0,1,448.39,305.78Z" transform="translate(-259.05 -92.06)"/><path class="cls-5" d="M447.43,305a.76.76,0,1,1-.76-.76A.76.76,0,0,1,447.43,305Z" transform="translate(-259.05 -92.06)"/><path class="cls-13" d="M467.72,309.28a2.33,2.33,0,1,1-2.33-2.33A2.33,2.33,0,0,1,467.72,309.28Z" transform="translate(-259.05 -92.06)"/><path class="cls-5" d="M466.76,308.54a.76.76,0,1,1-.76-.76A.76.76,0,0,1,466.76,308.54Z" transform="translate(-259.05 -92.06)"/><path class="cls-13" d="M495.88,303a2.34,2.34,0,1,1-2.33-2.33A2.33,2.33,0,0,1,495.88,303Z" transform="translate(-259.05 -92.06)"/><path class="cls-5" d="M494.92,302.29a.76.76,0,1,1-.76-.76A.76.76,0,0,1,494.92,302.29Z" transform="translate(-259.05 -92.06)"/><path class="cls-13" d="M503.63,291a2.34,2.34,0,1,1-2.33-2.33A2.33,2.33,0,0,1,503.63,291Z" transform="translate(-259.05 -92.06)"/><path class="cls-5" d="M502.67,290.29a.76.76,0,1,1-.76-.76A.76.76,0,0,1,502.67,290.29Z" transform="translate(-259.05 -92.06)"/><path class="cls-13" d="M495.16,276.54a2.34,2.34,0,1,1-2.33-2.34A2.34,2.34,0,0,1,495.16,276.54Z" transform="translate(-259.05 -92.06)"/><path class="cls-5" d="M494.2,275.79a.76.76,0,1,1-.76-.76A.76.76,0,0,1,494.2,275.79Z" transform="translate(-259.05 -92.06)"/><path class="cls-13" d="M385.62,305.28a2.33,2.33,0,1,1-2.33-2.33A2.33,2.33,0,0,1,385.62,305.28Z" transform="translate(-259.05 -92.06)"/><path class="cls-5" d="M384.66,304.54a.76.76,0,1,1-.76-.76A.76.76,0,0,1,384.66,304.54Z" transform="translate(-259.05 -92.06)"/><g class="cls-31"><path class="cls-5" d="M419.31,198.64l.18-7.25c.46.15.92.31,1.38.5a15.44,15.44,0,0,1,6.43,5q-2.91,1.74-5.71,3.64A8.78,8.78,0,0,0,419.31,198.64Z" transform="translate(-259.05 -92.06)"/><path class="cls-5" d="M430.34,208.23a46.46,46.46,0,0,1-6-.47l-.75-.1a8.67,8.67,0,0,0-.24-3.83c1.89-1.3,3.83-2.54,5.8-3.72A15.59,15.59,0,0,1,430.34,208.23Z" transform="translate(-259.05 -92.06)"/><path class="cls-32" d="M394,233.35c-.78-1.11-1.58-2.21-2.43-3.27s-1.57-1.83-2.37-2.75l3.16-7.58q2.32,3.06,4.8,6Z" transform="translate(-259.05 -92.06)"/><path class="cls-5" d="M429.39,212c0,.11-.07.22-.12.33a3.36,3.36,0,0,1-6.45-1c1.14.15,2.28.42,3.43.52S428.34,212,429.39,212Z" transform="translate(-259.05 -92.06)"/><path class="cls-32" d="M392.24,237.5l-1.83,4.4a3.37,3.37,0,0,1-6.22-2.6l3.38-8.11c.56.64,1.12,1.29,1.63,2C390.26,234.57,391.27,236,392.24,237.5Z" transform="translate(-259.05 -92.06)"/><path class="cls-5" d="M398.77,221.86q-2.44-3-4.76-6.12l3.44-8.26,4.68,6.31Z" transform="translate(-259.05 -92.06)"/><path class="cls-5" d="M400.45,200.29a15.53,15.53,0,0,1,3.39-5c1,2.41,2,4.81,3,7.22-.07.14-.15.27-.21.42l-2.86,6.87-4.68-6.31Z" transform="translate(-259.05 -92.06)"/><path class="cls-5" d="M415.78,190.73q-.09,3.36-.17,6.74a8.83,8.83,0,0,0-6,1.73c-.89-2.1-1.78-4.21-2.66-6.31A15.66,15.66,0,0,1,415.78,190.73Z" transform="translate(-259.05 -92.06)"/><path class="cls-33" d="M394,233.35l-1.74,4.15c-1-1.47-2-2.93-3-4.34-.51-.68-1.07-1.33-1.63-2l1.61-3.86c.8.92,1.63,1.82,2.37,2.75S393.2,232.24,394,233.35Z" transform="translate(-259.05 -92.06)"/><path class="cls-33" d="M397.14,225.77q-2.47-3-4.8-6l1.67-4q2.31,3.1,4.76,6.12Z" transform="translate(-259.05 -92.06)"/><polygon class="cls-33" points="144.76 117.7 143.08 121.73 138.4 115.42 140.08 111.39 144.76 117.7"/><path class="cls-33" d="M406.91,192.89c.88,2.1,1.77,4.21,2.66,6.31a8.72,8.72,0,0,0-2.69,3.27c-1-2.41-2-4.81-3-7.22A15.59,15.59,0,0,1,406.91,192.89Z" transform="translate(-259.05 -92.06)"/><path class="cls-33" d="M421.59,200.54q2.81-1.9,5.71-3.64a15.38,15.38,0,0,1,1.87,3.21c-2,1.18-3.91,2.42-5.8,3.72A9,9,0,0,0,421.59,200.54Z" transform="translate(-259.05 -92.06)"/><path class="cls-33" d="M419.49,191.39l-.18,7.25a10.12,10.12,0,0,0-1-.53,8.76,8.76,0,0,0-2.66-.64q.08-3.37.17-6.74A15.48,15.48,0,0,1,419.49,191.39Z" transform="translate(-259.05 -92.06)"/><path class="cls-33" d="M430.34,208.23a15.89,15.89,0,0,1-.95,3.75c-1.05,0-2.09,0-3.14-.14s-2.29-.37-3.43-.52a3.35,3.35,0,0,1,.23-1.61,8.45,8.45,0,0,0,.56-2.05l.75.1A46.46,46.46,0,0,0,430.34,208.23Z" transform="translate(-259.05 -92.06)"/></g><g class="cls-34"><path class="cls-5" d="M333.23,165.58c0-1.43-.07-2.85-.1-4.28-.28.09-.55.18-.82.29a9.24,9.24,0,0,0-3.79,3c1.14.69,2.26,1.4,3.37,2.15A5,5,0,0,1,333.23,165.58Z" transform="translate(-259.05 -92.06)"/><path class="cls-5" d="M326.72,171.24a28,28,0,0,0,3.53-.28l.44-.06a5.22,5.22,0,0,1,.15-2.26c-1.12-.77-2.26-1.5-3.43-2.19A9.28,9.28,0,0,0,326.72,171.24Z" transform="translate(-259.05 -92.06)"/><path class="cls-32" d="M348.19,186.07c.46-.66.93-1.3,1.43-1.93s.93-1.08,1.4-1.62L349.16,178c-.92,1.2-1.87,2.39-2.84,3.55Z" transform="translate(-259.05 -92.06)"/><path class="cls-5" d="M327.28,173.45a1.59,1.59,0,0,1,.07.2,2,2,0,0,0,2.61,1.07,2,2,0,0,0,1.2-1.65c-.67.08-1.35.24-2,.3S327.9,173.44,327.28,173.45Z" transform="translate(-259.05 -92.06)"/><path class="cls-32" d="M349.21,188.52l1.08,2.6a2,2,0,0,0,3.68-1.54l-2-4.78c-.33.38-.66.76-1,1.16C350.38,186.79,349.79,187.65,349.21,188.52Z" transform="translate(-259.05 -92.06)"/><path class="cls-5" d="M345.36,179.29c1-1.19,1.9-2.39,2.81-3.62l-2-4.87-2.76,3.72Z" transform="translate(-259.05 -92.06)"/><path class="cls-5" d="M344.37,166.56a9.24,9.24,0,0,0-2-3l-1.8,4.26a1.92,1.92,0,0,1,.12.25l1.69,4.06,2.77-3.73Z" transform="translate(-259.05 -92.06)"/><path class="cls-5" d="M335.32,160.91c0,1.33.07,2.65.1,4a5.28,5.28,0,0,1,3.57,1l1.56-3.72A9.16,9.16,0,0,0,335.32,160.91Z" transform="translate(-259.05 -92.06)"/><path class="cls-33" d="M348.19,186.07l1,2.45c.58-.87,1.17-1.73,1.8-2.56.3-.4.63-.78,1-1.16l-1-2.28c-.47.54-1,1.07-1.4,1.62S348.65,185.41,348.19,186.07Z" transform="translate(-259.05 -92.06)"/><path class="cls-33" d="M346.32,181.59c1-1.16,1.92-2.35,2.84-3.55l-1-2.37c-.91,1.23-1.85,2.43-2.81,3.62Z" transform="translate(-259.05 -92.06)"/><polygon class="cls-33" points="83.34 80.09 84.33 82.46 87.09 78.74 86.1 76.36 83.34 80.09"/><path class="cls-33" d="M340.55,162.19,339,165.91a5.08,5.08,0,0,1,1.58,1.93l1.8-4.26A8.7,8.7,0,0,0,340.55,162.19Z" transform="translate(-259.05 -92.06)"/><path class="cls-33" d="M331.89,166.7c-1.11-.75-2.23-1.46-3.37-2.15a8.83,8.83,0,0,0-1.11,1.9c1.17.69,2.31,1.42,3.43,2.19A5.1,5.1,0,0,1,331.89,166.7Z" transform="translate(-259.05 -92.06)"/><path class="cls-33" d="M333.13,161.3c0,1.43.07,2.85.1,4.28a4.48,4.48,0,0,1,.62-.31,4.87,4.87,0,0,1,1.57-.38c0-1.33-.07-2.65-.1-4A9.25,9.25,0,0,0,333.13,161.3Z" transform="translate(-259.05 -92.06)"/><path class="cls-33" d="M326.72,171.24a9.2,9.2,0,0,0,.56,2.21c.62,0,1.24,0,1.86-.08s1.35-.22,2-.3a2,2,0,0,0-.13-.95,5.42,5.42,0,0,1-.34-1.22l-.44.06A28,28,0,0,1,326.72,171.24Z" transform="translate(-259.05 -92.06)"/></g><circle class="cls-23" cx="71.36" cy="149.98" r="6.5"/><path class="cls-24" d="M334,239.81a2.23,2.23,0,1,1-2.23-2.22A2.23,2.23,0,0,1,334,239.81Z" transform="translate(-259.05 -92.06)"/><circle class="cls-23" cx="106.36" cy="113.31" r="5.5"/><circle class="cls-24" cx="107.52" cy="111.43" r="1.88"/><circle class="cls-23" cx="136.7" cy="169.39" r="5.5"/><path class="cls-24" d="M398.79,259.57a1.88,1.88,0,1,1-1.88-1.88A1.88,1.88,0,0,1,398.79,259.57Z" transform="translate(-259.05 -92.06)"/><polygon class="cls-24" points="136.97 90.7 137.95 94 143.19 98.26 141.42 92.33 138.41 88.88 136.97 90.7"/><polygon class="cls-24" points="128.91 79.4 124.93 75.95 130.44 71.52 131.78 77.7 128.91 79.4"/><path class="cls-13" d="M399.48,172.58a8,8,0,1,1-11-2.81A8,8,0,0,1,399.48,172.58Z" transform="translate(-259.05 -92.06)"/><path class="cls-24" d="M395,172.05a2.74,2.74,0,1,1-3.75-1A2.74,2.74,0,0,1,395,172.05Z" transform="translate(-259.05 -92.06)"/><line class="cls-35" x1="128.77" y1="75.22" x2="113.15" y2="51.64"/><path class="cls-24" d="M372.85,142.35a1.42,1.42,0,1,1-1.94-.5A1.42,1.42,0,0,1,372.85,142.35Z" transform="translate(-259.05 -92.06)"/><polygon class="cls-24" points="114.79 170.88 114.17 173.35 115.91 178.06 117.02 173.6 116.4 170.26 114.79 170.88"/><polygon class="cls-24" points="113.92 160.59 112.68 156.88 117.89 156.13 116.4 160.59 113.92 160.59"/><path class="cls-13" d="M379.91,257.73a5.95,5.95,0,1,1-6-5.94A5.95,5.95,0,0,1,379.91,257.73Z" transform="translate(-259.05 -92.06)"/><circle class="cls-24" cx="116.17" cy="163.64" r="2.03"/><line class="cls-36" x1="115.41" y1="157.87" x2="114.36" y2="136.87"/><path class="cls-24" d="M374.33,228.31a1.05,1.05,0,1,1-1.05-1.05A1.06,1.06,0,0,1,374.33,228.31Z" transform="translate(-259.05 -92.06)"/><path class="cls-24" d="M349.49,305l-.2-4.18h1.79v4.38l3.18-2.39,1.2,1.79-2.79,2h4l-.19,2.19-3.59-.4,2.59,4-1.79.8-2.39-3.59-.4,5.38h-2l.4-5.18-2.39,3-1.4-2,3.19-2.39H344.9v-1.79l4,.2-2.79-2.59,1.39-1Z" transform="translate(-259.05 -92.06)"/><path class="cls-24" d="M405.82,314.69l-.2-4.18h1.79v4.38l3.19-2.39,1.19,1.79-2.79,2h4l-.2,2.19-3.59-.39,2.59,4-1.79.79-2.39-3.58-.4,5.38h-2l.4-5.18-2.39,3-1.39-2,3.18-2.39h-3.78v-1.8l4,.2-2.79-2.59,1.4-1Z" transform="translate(-259.05 -92.06)"/><path class="cls-24" d="M416.12,227.71l-.2-4.19h1.79v4.38l3.19-2.39,1.19,1.8-2.79,2h4l-.2,2.19-3.59-.4,2.59,4-1.79.8-2.39-3.58-.4,5.37h-2l.4-5.18-2.39,3-1.4-2,3.19-2.39h-3.78V229.3l4,.2-2.79-2.59,1.4-1Z" transform="translate(-259.05 -92.06)"/><path class="cls-24" d="M455.92,290.94l-.14-2.91H457v3.05l2.22-1.66.83,1.25-1.94,1.38h2.77l-.14,1.53-2.5-.28,1.81,2.77-1.25.56-1.67-2.5-.27,3.75H455.5l.28-3.61-1.67,2.08-1-1.38,2.22-1.67h-2.63v-1.25l2.77.14-1.94-1.8,1-.69Z" transform="translate(-259.05 -92.06)"/><path class="cls-24" d="M346.8,239.15l-.14-2.92h1.25v3.06l2.22-1.67.83,1.25L349,240.26h2.77l-.14,1.52-2.49-.28,1.8,2.78-1.25.55-1.66-2.49-.28,3.74h-1.39l.28-3.6L345,244.56l-1-1.39,2.22-1.67h-2.64v-1.24l2.77.14-1.94-1.81,1-.69Z" transform="translate(-259.05 -92.06)"/><path class="cls-6" d="M301.91,235.29s10-3,12-12.5C314.91,232.79,310.41,237.79,301.91,235.29Z" transform="translate(-259.05 -92.06)"/><path class="cls-6" d="M451.81,220.72s6.28,8.34,15.89,6.92C458.66,232.05,452.41,229.56,451.81,220.72Z" transform="translate(-259.05 -92.06)"/><path class="cls-6" d="M393.81,123.72s6.28,8.34,15.89,6.92C400.66,135.05,394.41,132.56,393.81,123.72Z" transform="translate(-259.05 -92.06)"/><path class="cls-6" d="M534.41,149.29s6.5,6,19.5,4C549.41,156.29,539.41,158.29,534.41,149.29Z" transform="translate(-259.05 -92.06)"/><path class="cls-6" d="M497.77,235s8.68-1.71,14.73-13.39C512.27,227,508,236.27,497.77,235Z" transform="translate(-259.05 -92.06)"/></g></g></svg>