<svg xmlns="http://www.w3.org/2000/svg" viewBox="0 0 252.61 144.57"><defs><style>.cls-1{fill:#fff;}.cls-2{fill:#30b1f5;}.cls-3{fill:#1c32a0;}.cls-4{fill:#f78411;}.cls-5{fill:#040a23;}</style></defs><g id="Layer_2" data-name="Layer 2"><g id="Layer_1-2" data-name="Layer 1"><rect class="cls-1" width="252.61" height="144.57"/><rect class="cls-2" x="134.83" y="59.26" width="10.96" height="3.4" transform="translate(-0.18 0.41) rotate(-0.17)"/><rect class="cls-3" x="130.4" y="52.4" width="3.4" height="9.41" transform="translate(-8.61 87.29) rotate(-35.49)"/><polygon class="cls-4" points="124.92 62.7 124.91 59.3 134.04 59.27 140.11 52.13 142.71 54.34 135.62 62.67 124.92 62.7"/><path class="cls-5" d="M88.89,77.18a5,5,0,0,1-4,1.92,6.75,6.75,0,0,1,0-13.5,5,5,0,0,1,4,1.89V65.87h3.39v13H88.89Zm-3.56-1.33a3.42,3.42,0,0,0,3.56-3.5,3.57,3.57,0,1,0-3.56,3.5Z"/><path class="cls-5" d="M96.11,58.82H99.5v20H96.11Z"/><path class="cls-5" d="M105,58.82a2,2,0,1,1,0,4.08,2,2,0,1,1,0-4.08Zm1.66,20h-3.36v-13h3.36Z"/><path class="cls-5" d="M118.23,78.85h-1.75c-3.61,0-4.83-1.89-4.83-5.22v-5h-2.36V65.87h2.36V63.18l3.42-1.08v3.77h2.69V68.6h-2.69v5.08c0,1.11.27,2.06,1.91,2.06h1.25Z"/><path class="cls-5" d="M133.63,73.49h-9.89c.22,1.75,1.66,2.78,3.58,2.78a3.68,3.68,0,0,0,3.25-1.67c.81.44,1.72.94,2.59,1.39a7,7,0,0,1-12.79-3.67,6.49,6.49,0,0,1,6.73-6.72,6.39,6.39,0,0,1,6.58,6.72C133.68,72.65,133.66,73.18,133.63,73.49Zm-3.25-2.31a3.09,3.09,0,0,0-3.25-2.75,3.18,3.18,0,0,0-3.42,2.75Z"/><path class="cls-5" d="M142.71,65.6a6.59,6.59,0,0,1,5.39,2.52l-2.69,2a3.24,3.24,0,0,0-2.7-1.27,3.49,3.49,0,0,0-3.64,3.44,3.59,3.59,0,0,0,3.64,3.56,3.28,3.28,0,0,0,2.7-1.31l2.72,2a6.61,6.61,0,0,1-5.42,2.56,6.79,6.79,0,0,1-7-6.81A6.7,6.7,0,0,1,142.71,65.6Z"/><path class="cls-5" d="M154.39,78.85H151v-20h3.39v9.05c.58-1.55,2.75-2.27,4-2.27,3.37,0,5.23,2.22,5.23,6v7.22h-3.39V71.79a2.74,2.74,0,0,0-2.75-2.89,2.89,2.89,0,0,0-3.11,3Z"/></g></g></svg>